# File produced by Open Asset Import Library (http://www.assimp.sf.net)
# (assimp v3.2.202087883)

mtllib model_normalized.mtl

# 117 vertex positions
v -0.060559 0.412393 0.025084
v -0.046790 0.372996 0.112962
v -0.025084 0.412393 0.060559
v -0.112962 0.372996 0.046790
v -0.000000 0.372996 0.112962
v -0.000000 0.434130 0.000000
v -0.112962 0.372996 0.000000
v -0.112962 0.342429 0.046790
v 0.025084 0.412393 0.060559
v 0.046790 0.372996 0.112962
v -0.060559 0.412393 -0.025085
v -0.112962 0.372996 -0.046790
v -0.046790 0.342429 0.112962
v 0.060559 0.412393 0.025084
v -0.025084 0.412393 -0.060559
v -0.112962 0.342429 0.000000
v -0.046790 0.220160 0.112962
v 0.046790 0.342429 0.112962
v 0.060559 0.412393 -0.025085
v 0.025084 0.412393 -0.060559
v -0.046790 0.372996 -0.112962
v -0.112962 0.342429 -0.046790
v -0.112962 0.220160 0.046790
v -0.000000 0.342429 0.112962
v 0.112962 0.372996 0.046790
v 0.112962 0.372996 0.000000
v -0.000000 0.372996 -0.112962
v -0.046790 0.342429 -0.112962
v -0.112962 0.220160 -0.046790
v -0.112962 0.220160 0.000000
v -0.046790 0.097891 0.112962
v 0.112962 0.342429 0.046790
v 0.112962 0.372996 -0.046790
v 0.046790 0.372996 -0.112962
v 0.046790 0.342429 -0.112962
v -0.046790 0.220160 -0.112962
v -0.112962 0.097891 0.046790
v 0.046790 0.220160 0.112962
v -0.000000 0.220160 0.112962
v 0.112962 0.342429 0.000000
v -0.000000 0.342429 -0.112962
v -0.000000 0.220160 -0.112962
v -0.112962 0.097891 0.000000
v -0.046790 0.097891 -0.112962
v -0.046790 -0.024378 0.112962
v -0.000000 0.097891 0.112962
v 0.112962 0.220160 0.046790
v 0.112962 0.220160 0.000000
v 0.112962 0.342429 -0.046790
v 0.046790 0.220160 -0.112962
v -0.112962 0.097891 -0.046790
v -0.000000 0.097891 -0.112962
v -0.112962 -0.024378 0.046790
v 0.046790 0.097891 0.112962
v 0.112962 0.220160 -0.046790
v 0.046790 0.097891 -0.112962
v -0.112962 -0.024378 0.000000
v -0.046790 -0.024378 -0.112962
v -0.046790 -0.146647 0.112962
v -0.000000 -0.024378 0.112962
v 0.112962 0.097891 0.046790
v 0.112962 0.097891 0.000000
v 0.112962 0.097891 -0.046790
v -0.112962 -0.024378 -0.046790
v -0.000000 -0.024378 -0.112962
v 0.046790 -0.024378 -0.112962
v -0.112962 -0.146647 0.046790
v 0.046790 -0.024378 0.112962
v -0.112962 -0.146647 -0.046790
v -0.046790 -0.146647 -0.112962
v -0.112962 -0.146647 0.000000
v -0.046790 -0.268916 0.112962
v -0.000000 -0.146647 0.112962
v 0.112962 -0.024378 0.046790
v 0.112962 -0.024378 0.000000
v 0.112962 -0.024378 -0.046790
v -0.000000 -0.146647 -0.112962
v 0.046790 -0.146647 -0.112962
v -0.112962 -0.268916 0.046790
v 0.046790 -0.146647 0.112962
v -0.112962 -0.268916 -0.046790
v -0.046790 -0.268916 -0.112962
v -0.112962 -0.268916 0.000000
v -0.046790 -0.391185 0.112962
v -0.000000 -0.268916 0.112962
v 0.112962 -0.146647 0.046790
v 0.112962 -0.146647 0.000000
v 0.112962 -0.146647 -0.046790
v -0.000000 -0.268916 -0.112962
v 0.046790 -0.268916 -0.112962
v -0.112962 -0.391185 0.046790
v 0.046790 -0.268916 0.112962
v -0.112962 -0.391185 -0.046790
v -0.046790 -0.391185 -0.112962
v -0.112962 -0.391185 0.000000
v -0.046790 -0.513454 0.112962
v -0.000000 -0.391185 0.112962
v 0.112962 -0.268916 0.046790
v 0.112962 -0.268916 0.000000
v 0.112962 -0.268916 -0.046790
v -0.000000 -0.391185 -0.112962
v 0.046790 -0.391185 -0.112962
v -0.112962 -0.513454 0.046790
v 0.046790 -0.391185 0.112962
v -0.112962 -0.513454 0.000000
v -0.046790 -0.513454 -0.112962
v -0.000000 -0.513454 0.112962
v 0.112962 -0.391185 0.046790
v 0.112962 -0.391185 0.000000
v 0.112962 -0.391185 -0.046790
v -0.112962 -0.513454 -0.046790
v -0.000000 -0.513454 -0.112962
v 0.046790 -0.513454 -0.112962
v 0.046790 -0.513454 0.112962
v 0.112962 -0.513454 0.046790
v 0.112962 -0.513454 0.000000
v 0.112962 -0.513454 -0.046790

# 0 UV coordinates

# 54 vertex normals
vn -0.0104661 0.0227338 0.00433522
vn -0.00855132 0.0120761 0.0206447
vn -0.00433522 0.0227338 0.0104661
vn -0.0206447 0.0120761 0.00855132
vn 0.00433522 -0.0227338 -0.0104661
vn 0.00855132 -0.0120761 -0.0206447
vn 0.0104661 -0.0227338 -0.00433522
vn 0.0206447 -0.0120761 -0.00855132
vn 0 0.0113462 0.0227249
vn 0 -0.0113462 -0.0227249
vn 0 0.0254 0
vn 0 -0.0254 0
vn -0.0227249 0.0113462 0
vn 0.0227249 -0.0113462 -0
vn -0.0234666 0 0.00972015
vn 0.0234666 -0 -0.00972015
vn 0.00433522 0.0227338 0.0104661
vn -0.00433522 -0.0227338 -0.0104661
vn 0.00855132 0.0120761 0.0206447
vn -0.00855132 -0.0120761 -0.0206447
vn -0.0104661 0.0227338 -0.00433522
vn 0.0104661 -0.0227338 0.00433522
vn -0.0206447 0.0120761 -0.00855132
vn 0.0206447 -0.0120761 0.00855132
vn -0.00972015 0 0.0234666
vn 0.00972015 -0 -0.0234666
vn 0.0104661 0.0227338 0.00433522
vn -0.0104661 -0.0227338 -0.00433522
vn -0.00433522 0.0227338 -0.0104661
vn 0.00433522 -0.0227338 0.0104661
vn -0.0254 0 0
vn 0.0254 -0 -0
vn 0.00972015 0 0.0234666
vn -0.00972015 0 -0.0234666
vn 0.0104661 0.0227338 -0.00433522
vn -0.0104661 -0.0227338 0.00433522
vn 0.00433522 0.0227338 -0.0104661
vn -0.00433522 -0.0227338 0.0104661
vn -0.00855132 0.0120761 -0.0206447
vn 0.00855132 -0.0120761 0.0206447
vn -0.0234666 0 -0.00972015
vn 0.0234666 0 0.00972015
vn 0 0 0.0254
vn 0 0 -0.0254
vn 0.0206447 0.0120761 0.00855132
vn -0.0206447 -0.0120761 -0.00855132
vn 0.0227249 0.0113462 0
vn -0.0227249 -0.0113462 0
vn 0 0.0113462 -0.0227249
vn 0 -0.0113462 0.0227249
vn 0.0206447 0.0120761 -0.00855132
vn -0.0206447 -0.0120761 0.00855132
vn 0.00855132 0.0120761 -0.0206447
vn -0.00855132 -0.0120761 0.0206447

# Mesh 'mesh1_mesh1-geometry' with 460 faces
g mesh1_mesh1-geometry
usemtl material_0_24
f  1//1 2//2 3//3
f  2//2 1//1 4//4
f  3//5 2//6 1//7
f  4//8 1//7 2//6
f  5//9 3//3 2//2
f  2//6 3//5 5//10
f  1//1 3//3 6//11
f  6//12 3//5 1//7
f  4//4 1//1 7//13
f  7//14 1//7 4//8
f  8//15 2//2 4//4
f  4//8 2//6 8//16
f  5//9 9//17 3//3
f  3//5 9//18 5//10
f  2//2 10//19 5//9
f  5//10 10//20 2//6
f  3//3 9//17 6//11
f  6//12 9//18 3//5
f  1//1 6//11 11//21
f  11//22 6//12 1//7
f  1//1 12//23 7//13
f  7//14 12//24 1//7
f  7//13 8//15 4//4
f  4//8 8//16 7//14
f  2//2 8//15 13//25
f  13//26 8//16 2//6
f  9//17 5//9 10//19
f  10//20 5//10 9//18
f  13//25 10//19 2//2
f  2//6 10//20 13//26
f  6//11 9//17 14//27
f  14//28 9//18 6//12
f  11//21 6//11 15//29
f  15//30 6//12 11//22
f  12//23 1//1 11//21
f  11//22 1//7 12//24
f  12//23 16//31 7//13
f  7//14 16//32 12//24
f  7//13 16//31 8//15
f  8//16 16//32 7//14
f  8//15 17//25 13//25
f  13//26 17//26 8//16
f  10//19 14//27 9//17
f  9//18 14//28 10//20
f  13//25 18//33 10//19
f  10//20 18//34 13//26
f  6//11 14//27 19//35
f  19//36 14//28 6//12
f  15//29 6//11 20//37
f  20//38 6//12 15//30
f  21//39 11//21 15//29
f  15//30 11//22 21//40
f  11//21 21//39 12//23
f  12//24 21//40 11//22
f  16//31 12//23 22//41
f  22//42 12//24 16//32
f  16//31 23//15 8//15
f  8//16 23//16 16//32
f  17//25 8//15 23//15
f  23//16 8//16 17//26
f  13//25 17//25 24//43
f  24//44 17//26 13//26
f  14//27 10//19 25//45
f  25//46 10//20 14//28
f  18//33 13//25 24//43
f  24//44 13//26 18//34
f  18//33 25//45 10//19
f  10//20 25//46 18//34
f  14//27 26//47 19//35
f  19//36 26//48 14//28
f  6//11 19//35 20//37
f  20//38 19//36 6//12
f  20//37 27//49 15//29
f  15//30 27//50 20//38
f  15//29 27//49 21//39
f  21//40 27//50 15//30
f  28//34 12//23 21//39
f  21//40 12//24 28//33
f  12//23 28//34 22//41
f  22//42 28//33 12//24
f  29//41 16//31 22//41
f  22//42 16//32 29//42
f  16//31 30//31 23//15
f  23//16 30//32 16//32
f  23//15 31//25 17//25
f  17//26 31//26 23//16
f  17//25 18//33 24//43
f  24//44 18//34 17//26
f  26//47 14//27 25//45
f  25//46 14//28 26//48
f  25//45 18//33 32//42
f  32//41 18//34 25//46
f  19//35 26//47 33//51
f  33//52 26//48 19//36
f  19//35 34//53 20//37
f  20//38 34//54 19//36
f  27//49 20//37 34//53
f  34//54 20//38 27//50
f  34//53 21//39 27//49
f  27//50 21//40 34//54
f  35//26 28//34 21//39
f  21//40 28//33 35//25
f  36//34 22//41 28//34
f  28//33 22//42 36//33
f  16//31 29//41 30//31
f  30//32 29//42 16//32
f  22//41 36//34 29//41
f  29//42 36//33 22//42
f  30//31 37//15 23//15
f  23//16 37//16 30//32
f  31//25 23//15 37//15
f  37//16 23//16 31//26
f  31//25 38//33 17//25
f  17//26 38//34 31//26
f  39//43 18//33 17//25
f  17//26 18//34 39//44
f  40//32 26//47 25//45
f  25//46 26//48 40//31
f  38//33 32//42 18//33
f  18//34 32//41 38//34
f  40//32 25//45 32//42
f  32//41 25//46 40//31
f  40//32 33//51 26//47
f  26//48 33//52 40//31
f  34//53 19//35 33//51
f  33//52 19//36 34//54
f  35//26 21//39 34//53
f  34//54 21//40 35//25
f  28//34 35//26 41//44
f  41//43 35//25 28//33
f  28//34 42//44 36//34
f  36//33 42//43 28//33
f  29//41 43//31 30//31
f  30//32 43//32 29//42
f  44//34 29//41 36//34
f  36//33 29//42 44//33
f  30//31 43//31 37//15
f  37//16 43//32 30//32
f  37//15 45//25 31//25
f  31//26 45//26 37//16
f  46//43 38//33 31//25
f  31//26 38//34 46//44
f  17//25 38//33 39//43
f  39//44 38//34 17//26
f  18//33 39//43 38//33
f  38//34 39//44 18//34
f  32//42 38//33 47//42
f  47//41 38//34 32//41
f  48//32 40//32 32//42
f  32//41 40//31 48//31
f  33//51 40//32 49//16
f  49//15 40//31 33//52
f  49//16 34//53 33//51
f  33//52 34//54 49//15
f  34//53 49//16 35//26
f  35//25 49//15 34//54
f  35//26 50//26 41//44
f  41//43 50//25 35//25
f  50//26 28//34 41//44
f  41//43 28//33 50//25
f  42//44 28//34 50//26
f  50//25 28//33 42//43
f  50//26 36//34 42//44
f  42//43 36//33 50//25
f  43//31 29//41 51//41
f  51//42 29//42 43//32
f  29//41 44//34 51//41
f  51//42 44//33 29//42
f  36//34 52//44 44//34
f  44//33 52//43 36//33
f  43//31 53//15 37//15
f  37//16 53//16 43//32
f  45//25 37//15 53//15
f  53//16 37//16 45//26
f  45//25 54//33 31//25
f  31//26 54//34 45//26
f  38//33 46//43 54//33
f  54//34 46//44 38//34
f  31//25 54//33 46//43
f  46//44 54//34 31//26
f  54//33 47//42 38//33
f  38//34 47//41 54//34
f  48//32 32//42 47//42
f  47//41 32//41 48//31
f  55//16 40//32 48//32
f  48//31 40//31 55//15
f  40//32 55//16 49//16
f  49//15 55//15 40//31
f  49//16 50//26 35//26
f  35//25 50//25 49//15
f  56//26 36//34 50//26
f  50//25 36//33 56//25
f  51//41 57//31 43//31
f  43//32 57//32 51//42
f  58//34 51//41 44//34
f  44//33 51//42 58//33
f  52//44 36//34 56//26
f  56//25 36//33 52//43
f  56//26 44//34 52//44
f  52//43 44//33 56//25
f  43//31 57//31 53//15
f  53//16 57//32 43//32
f  53//15 59//25 45//25
f  45//26 59//26 53//16
f  60//43 54//33 45//25
f  45//26 54//34 60//44
f  47//42 54//33 61//42
f  61//41 54//34 47//41
f  62//32 48//32 47//42
f  47//41 48//31 62//31
f  48//32 63//16 55//16
f  55//15 63//15 48//31
f  50//26 49//16 55//16
f  55//15 49//15 50//25
f  55//16 56//26 50//26
f  50//25 56//25 55//15
f  57//31 51//41 64//41
f  64//42 51//42 57//32
f  51//41 58//34 64//41
f  64//42 58//33 51//42
f  44//34 65//44 58//34
f  58//33 65//43 44//33
f  66//26 44//34 56//26
f  56//25 44//33 66//25
f  57//31 67//15 53//15
f  53//16 67//16 57//32
f  59//25 53//15 67//15
f  67//16 53//16 59//26
f  59//25 68//33 45//25
f  45//26 68//34 59//26
f  54//33 60//43 68//33
f  68//34 60//44 54//34
f  45//25 68//33 60//43
f  60//44 68//34 45//26
f  68//33 61//42 54//33
f  54//34 61//41 68//34
f  62//32 47//42 61//42
f  61//41 47//41 62//31
f  63//16 48//32 62//32
f  62//31 48//31 63//15
f  56//26 55//16 63//16
f  63//15 55//15 56//25
f  69//41 57//31 64//41
f  64//42 57//32 69//42
f  70//34 64//41 58//34
f  58//33 64//42 70//33
f  65//44 44//34 66//26
f  66//25 44//33 65//43
f  66//26 58//34 65//44
f  65//43 58//33 66//25
f  63//16 66//26 56//26
f  56//25 66//25 63//15
f  57//31 71//31 67//15
f  67//16 71//32 57//32
f  67//15 72//25 59//25
f  59//26 72//26 67//16
f  73//43 68//33 59//25
f  59//26 68//34 73//44
f  61//42 68//33 74//42
f  74//41 68//34 61//41
f  75//32 62//32 61//42
f  61//41 62//31 75//31
f  62//32 76//16 63//16
f  63//15 76//15 62//31
f  57//31 69//41 71//31
f  71//32 69//42 57//32
f  64//41 70//34 69//41
f  69//42 70//33 64//42
f  58//34 77//44 70//34
f  70//33 77//43 58//33
f  78//26 58//34 66//26
f  66//25 58//33 78//25
f  66//26 63//16 76//16
f  76//15 63//15 66//25
f  71//31 79//15 67//15
f  67//16 79//16 71//32
f  72//25 67//15 79//15
f  79//16 67//16 72//26
f  72//25 80//33 59//25
f  59//26 80//34 72//26
f  68//33 73//43 80//33
f  80//34 73//44 68//34
f  59//25 80//33 73//43
f  73//44 80//34 59//26
f  80//33 74//42 68//33
f  68//34 74//41 80//34
f  75//32 61//42 74//42
f  74//41 61//41 75//31
f  76//16 62//32 75//32
f  75//31 62//31 76//15
f  81//41 71//31 69//41
f  69//42 71//32 81//42
f  82//34 69//41 70//34
f  70//33 69//42 82//33
f  77//44 58//34 78//26
f  78//25 58//33 77//43
f  78//26 70//34 77//44
f  77//43 70//33 78//25
f  76//16 78//26 66//26
f  66//25 78//25 76//15
f  71//31 83//31 79//15
f  79//16 83//32 71//32
f  79//15 84//25 72//25
f  72//26 84//26 79//16
f  85//43 80//33 72//25
f  72//26 80//34 85//44
f  74//42 80//33 86//42
f  86//41 80//34 74//41
f  87//32 75//32 74//42
f  74//41 75//31 87//31
f  75//32 88//16 76//16
f  76//15 88//15 75//31
f  71//31 81//41 83//31
f  83//32 81//42 71//32
f  69//41 82//34 81//41
f  81//42 82//33 69//42
f  70//34 89//44 82//34
f  82//33 89//43 70//33
f  90//26 70//34 78//26
f  78//25 70//33 90//25
f  78//26 76//16 88//16
f  88//15 76//15 78//25
f  83//31 91//15 79//15
f  79//16 91//16 83//32
f  84//25 79//15 91//15
f  91//16 79//16 84//26
f  84//25 92//33 72//25
f  72//26 92//34 84//26
f  80//33 85//43 92//33
f  92//34 85//44 80//34
f  72//25 92//33 85//43
f  85//44 92//34 72//26
f  92//33 86//42 80//33
f  80//34 86//41 92//34
f  87//32 74//42 86//42
f  86//41 74//41 87//31
f  88//16 75//32 87//32
f  87//31 75//31 88//15
f  93//41 83//31 81//41
f  81//42 83//32 93//42
f  94//34 81//41 82//34
f  82//33 81//42 94//33
f  89//44 70//34 90//26
f  90//25 70//33 89//43
f  90//26 82//34 89//44
f  89//43 82//33 90//25
f  88//16 90//26 78//26
f  78//25 90//25 88//15
f  83//31 95//31 91//15
f  91//16 95//32 83//32
f  91//15 96//25 84//25
f  84//26 96//26 91//16
f  97//43 92//33 84//25
f  84//26 92//34 97//44
f  86//42 92//33 98//42
f  98//41 92//34 86//41
f  99//32 87//32 86//42
f  86//41 87//31 99//31
f  87//32 100//16 88//16
f  88//15 100//15 87//31
f  83//31 93//41 95//31
f  95//32 93//42 83//32
f  81//41 94//34 93//41
f  93//42 94//33 81//42
f  82//34 101//44 94//34
f  94//33 101//43 82//33
f  102//26 82//34 90//26
f  90//25 82//33 102//25
f  90//26 88//16 100//16
f  100//15 88//15 90//25
f  95//31 103//15 91//15
f  91//16 103//16 95//32
f  96//25 91//15 103//15
f  103//16 91//16 96//26
f  96//25 104//33 84//25
f  84//26 104//34 96//26
f  92//33 97//43 104//33
f  104//34 97//44 92//34
f  84//25 104//33 97//43
f  97//44 104//34 84//26
f  104//33 98//42 92//33
f  92//34 98//41 104//34
f  99//32 86//42 98//42
f  98//41 86//41 99//31
f  100//16 87//32 99//32
f  99//31 87//31 100//15
f  93//41 105//31 95//31
f  95//32 105//32 93//42
f  106//34 93//41 94//34
f  94//33 93//42 106//33
f  101//44 82//34 102//26
f  102//25 82//33 101//43
f  102//26 94//34 101//44
f  101//43 94//33 102//25
f  100//16 102//26 90//26
f  90//25 102//25 100//15
f  95//31 105//31 103//15
f  103//16 105//32 95//32
f  105//12 96//12 103//12
f  103//11 96//11 105//11
f  107//43 104//33 96//25
f  96//26 104//34 107//44
f  98//42 104//33 108//42
f  108//41 104//34 98//41
f  109//32 99//32 98//42
f  98//41 99//31 109//31
f  99//32 110//16 100//16
f  100//15 110//15 99//31
f  105//31 93//41 111//41
f  111//42 93//42 105//32
f  93//41 106//34 111//41
f  111//42 106//33 93//42
f  94//34 112//44 106//34
f  106//33 112//43 94//33
f  113//26 94//34 102//26
f  102//25 94//33 113//25
f  102//26 100//16 110//16
f  110//15 100//15 102//25
f  111//12 96//12 105//12
f  105//11 96//11 111//11
f  104//33 107//43 114//33
f  114//34 107//44 104//34
f  106//12 107//12 96//12
f  96//11 107//11 106//11
f  114//33 108//42 104//33
f  104//34 108//41 114//34
f  109//32 98//42 108//42
f  108//41 98//41 109//31
f  110//16 99//32 109//32
f  109//31 99//31 110//15
f  106//12 96//12 111//12
f  111//11 96//11 106//11
f  112//44 94//34 113//26
f  113//25 94//33 112//43
f  112//12 107//12 106//12
f  106//11 107//11 112//11
f  110//16 113//26 102//26
f  102//25 113//25 110//15
f  112//12 114//12 107//12
f  107//11 114//11 112//11
f  108//42 114//33 115//42
f  115//41 114//34 108//41
f  116//32 109//32 108//42
f  108//41 109//31 116//31
f  109//32 117//16 110//16
f  110//15 117//15 109//31
f  113//12 114//12 112//12
f  112//11 114//11 113//11
f  113//26 110//16 117//16
f  117//15 110//15 113//25
f  114//12 116//12 115//12
f  115//11 116//11 114//11
f  116//32 108//42 115//42
f  115//41 108//41 116//31
f  117//16 109//32 116//32
f  116//31 109//31 117//15
f  116//12 114//12 113//12
f  113//11 114//11 116//11
f  113//12 117//12 116//12
f  116//11 117//11 113//11

# Mesh 'mesh2_mesh2-geometry' with 12 faces
g mesh2_mesh2-geometry
usemtl material_0_0
l  31 46
l  37 31
l  46 54
l  43 37
l  54 61
l  51 43
l  61 62
l  44 51
l  62 63
l  52 44
l  63 56
l  56 52

# Mesh 'mesh3_mesh3-geometry' with 12 faces
g mesh3_mesh3-geometry
usemtl material_0_0
l  16 8
l  22 16
l  8 13
l  28 22
l  13 24
l  41 28
l  24 18
l  35 41
l  18 32
l  49 35
l  32 40
l  40 49

# Mesh 'mesh4_mesh4-geometry' with 12 faces
g mesh4_mesh4-geometry
usemtl material_0_0
l  59 73
l  67 59
l  73 80
l  71 67
l  80 86
l  69 71
l  86 87
l  70 69
l  87 88
l  77 70
l  88 78
l  78 77

# Mesh 'mesh5_mesh5-geometry' with 12 faces
g mesh5_mesh5-geometry
usemtl material_0_0
l  72 85
l  79 72
l  85 92
l  83 79
l  92 98
l  81 83
l  98 99
l  82 81
l  99 100
l  89 82
l  100 90
l  90 89

# Mesh 'mesh6_mesh6-geometry' with 12 faces
g mesh6_mesh6-geometry
usemtl material_0_0
l  17 39
l  23 17
l  39 38
l  30 23
l  38 47
l  29 30
l  47 48
l  36 29
l  48 55
l  42 36
l  55 50
l  50 42

# Mesh 'mesh7_mesh7-geometry' with 12 faces
g mesh7_mesh7-geometry
usemtl material_0_0
l  105 103
l  111 105
l  103 96
l  106 111
l  96 107
l  112 106
l  107 114
l  113 112
l  114 115
l  117 113
l  115 116
l  116 117

# Mesh 'mesh8_mesh8-geometry' with 12 faces
g mesh8_mesh8-geometry
usemtl material_0_0
l  84 97
l  91 84
l  97 104
l  95 91
l  104 108
l  93 95
l  108 109
l  94 93
l  109 110
l  101 94
l  110 102
l  102 101

# Mesh 'mesh9_mesh9-geometry' with 12 faces
g mesh9_mesh9-geometry
usemtl material_0_0
l  53 45
l  57 53
l  45 60
l  64 57
l  60 68
l  58 64
l  68 74
l  65 58
l  74 75
l  66 65
l  75 76
l  76 66

