# File produced by Open Asset Import Library (http://www.assimp.sf.net)
# (assimp v3.2.202087883)

mtllib model_normalized.mtl

# 163 vertex positions
v 0.098238 -0.775998 0.019801
v 0.095009 -0.775998 -0.032538
v 0.100069 -0.775998 -0.006581
v 0.089641 -0.775998 0.044810
v 0.100069 0.073735 -0.006581
v 0.098238 0.073735 0.019801
v 0.089641 0.073735 0.044810
v 0.083403 -0.775998 -0.056301
v 0.095009 0.073735 -0.032538
v 0.074864 0.073735 0.066742
v 0.074864 -0.775998 0.066742
v 0.083403 0.073735 -0.056301
v 0.066043 -0.775998 -0.076251
v 0.054915 -0.775998 0.084103
v 0.066043 0.073735 -0.076251
v 0.054915 0.073735 0.084103
v 0.044111 -0.775998 -0.091028
v 0.031151 -0.775998 0.095708
v 0.044111 0.073735 -0.091028
v 0.031151 0.073735 0.095708
v 0.019102 -0.775998 -0.099624
v 0.019102 0.073735 -0.099624
v 0.005194 -0.775998 0.100768
v 0.005194 0.073735 0.100768
v -0.007280 -0.775998 -0.101455
v -0.007280 0.073735 -0.101455
v -0.021188 -0.775998 0.098937
v -0.021188 0.073735 0.098937
v -0.033237 -0.775998 -0.096396
v -0.033237 0.073735 -0.096396
v -0.046197 -0.775998 0.090340
v -0.046197 0.073735 0.090340
v -0.057001 -0.775998 -0.084790
v -0.057001 0.073735 -0.084790
v -0.068129 -0.775998 0.075564
v -0.068129 0.073735 0.075564
v -0.076950 -0.775998 -0.067430
v -0.076950 0.073735 -0.067430
v -0.085489 0.073735 0.055614
v -0.085489 -0.775998 0.055614
v -0.091727 -0.775998 -0.045498
v -0.097095 0.073735 0.031851
v -0.091727 0.073735 -0.045498
v -0.097095 -0.775998 0.031851
v -0.100324 -0.775998 -0.020488
v -0.102155 0.073735 0.005894
v -0.100324 0.073735 -0.020488
v -0.102155 -0.775998 0.005894
v 0.064798 0.101329 -0.074842
v 0.058668 0.127392 -0.067906
v 0.048108 0.149991 -0.055957
v 0.033901 0.167450 -0.039883
v 0.017102 0.178469 -0.020875
v -0.001043 0.182235 -0.000344
v -0.019188 0.178469 0.020188
v 0.014092 0.178469 0.022497
v -0.016178 0.178469 -0.023185
v 0.025810 0.178469 0.005105
v -0.027896 0.178469 -0.005792
v 0.004406 0.178469 -0.027197
v -0.006492 0.178469 0.026510
v 0.023831 0.178452 -0.011978
v -0.025512 0.178452 0.012120
v -0.005843 0.178452 -0.027381
v 0.004663 0.178452 0.026517
v -0.027904 0.178452 0.005362
v 0.025995 0.178452 -0.005144
v -0.035987 0.167450 0.039195
v 0.028105 0.167450 0.043643
v -0.030191 0.167450 -0.044331
v 0.050671 0.167450 0.010150
v -0.052757 0.167450 -0.010837
v 0.009450 0.167450 -0.052058
v -0.011536 0.167450 0.051371
v 0.047228 0.167389 -0.021905
v -0.047726 0.167389 0.024469
v -0.009376 0.167389 -0.052550
v 0.010842 0.167389 0.051171
v -0.052557 0.167389 0.011541
v 0.051164 0.167389 -0.008676
v -0.050194 0.149991 0.055270
v 0.039955 0.149991 0.061526
v -0.042041 0.149991 -0.062214
v 0.071695 0.149991 0.014415
v -0.073781 0.149991 -0.015103
v 0.013716 0.149991 -0.073082
v -0.015802 0.149991 0.072395
v 0.067380 0.149881 -0.029371
v -0.066005 0.149881 0.035771
v -0.011373 0.149881 -0.073948
v 0.017028 0.149881 0.071751
v -0.073138 0.149881 0.017727
v 0.072561 0.149881 -0.010673
v -0.060754 0.127392 0.067219
v -0.059714 0.150000 0.044956
v -0.039813 0.149991 0.063052
v 0.048763 0.127392 0.074819
v -0.050849 0.127392 -0.075506
v 0.087323 0.127392 0.017586
v 0.073014 0.150003 0.002716
v 0.068101 0.149991 0.026881
v -0.089409 0.127392 -0.018274
v 0.016887 0.127392 -0.088710
v -0.018973 0.127392 0.088022
v 0.082761 0.127250 -0.033814
v -0.078965 0.127250 0.045170
v -0.011683 0.127250 -0.089955
v -0.025001 0.149898 -0.070588
v 0.000386 0.149904 -0.074542
v 0.022752 0.127250 0.086703
v -0.088090 0.127250 0.023451
v 0.088568 0.127250 -0.010984
v -0.066884 0.101329 0.074154
v -0.067131 0.150006 0.033040
v -0.028232 0.149991 0.068898
v 0.053876 0.101329 0.082535
v -0.055962 0.101329 -0.083223
v 0.096395 0.101329 0.019427
v 0.072481 0.150009 -0.009046
v 0.062383 0.149991 0.038526
v -0.098481 0.101329 -0.020114
v 0.018728 0.101329 -0.097781
v -0.020814 0.101329 0.097094
v 0.092209 0.101213 -0.034897
v -0.085628 0.101213 0.051955
v -0.010284 0.101213 -0.099361
v -0.037757 0.149919 -0.064733
v 0.012092 0.149927 -0.073283
v 0.027581 0.101213 0.094895
v -0.096282 0.101213 0.028281
v 0.097975 0.101213 -0.009584
v -0.072183 0.150006 0.019944
v -0.015807 0.149991 0.072629
v 0.070108 0.150015 -0.020578
v 0.054716 0.149991 0.048992
v -0.049190 0.149939 -0.056590
v 0.023456 0.149951 -0.070203
v -0.074691 0.150003 0.006134
v -0.002921 0.149991 0.074131
v 0.065954 0.150012 -0.031595
v 0.045337 0.149991 0.057956
v -0.058894 0.149956 -0.046448
v 0.034195 0.149968 -0.065378
v -0.074565 0.149997 -0.007902
v 0.010030 0.149991 0.073356
v 0.060123 0.150006 -0.041823
v 0.034536 0.149991 0.065142
v -0.066524 0.149974 -0.034667
v 0.044045 0.149985 -0.058927
v -0.071810 0.149985 -0.021665
v 0.022645 0.149991 0.070328
v 0.052759 0.149997 -0.051010
v 0.072278 0.099955 0.064457
v 0.064695 0.124387 0.057755
v 0.052632 0.145368 0.047093
v 0.036911 0.161467 0.033199
v 0.018603 0.171588 0.017020
v -0.001043 0.175040 -0.000344
v -0.020689 0.171588 -0.017707
v -0.038997 0.161467 -0.033887
v -0.054717 0.145368 -0.047781
v -0.066781 0.124387 -0.058442
v -0.074364 0.099955 -0.065144

# 29 UV coordinates
vt 0 0 0
vt 0.814305 0 0
vt -0.814305 52.3295 0
vt -0.814305 0 0
vt 0.814305 52.3295 0
vt -5.42228 -1.81743 0
vt -5.60454 1.1372 0
vt -5.7079 -0.352112 0
vt -5.11924 2.54901 0
vt -4.76713 -3.15889 0
vt -4.28508 3.78711 0
vt -3.78711 -4.28508 0
vt -3.15889 4.76713 0
vt -2.54901 -5.11924 0
vt -1.81743 5.42228 0
vt -1.1372 -5.60454 0
vt -0.352112 5.7079 0
vt 0.352112 -5.7079 0
vt 1.1372 5.60454 0
vt 1.81743 -5.42228 0
vt 2.54901 5.11924 0
vt 3.15889 -4.76713 0
vt 3.78711 4.28508 0
vt 4.28508 -3.78711 0
vt 4.76713 3.15889 0
vt 5.11924 -2.54901 0
vt 5.42228 1.81743 0
vt 5.60454 -1.1372 0
vt 5.7079 0.352112 0

# 26 vertex normals
vn 0 -0.0254 0
vn 0 0.0254 0
vn -0.0253518 0 0.0015639
vn -0.0240832 0 0.00807215
vn -0.0248927 0 -0.00505092
vn -0.0227373 0 -0.0113215
vn -0.0190323 0 -0.0168206
vn -0.0211734 0 0.0140303
vn -0.0140303 0 -0.0211734
vn -0.0168206 0 0.0190323
vn -0.00807215 0 -0.0240832
vn -0.0113215 0 0.0227373
vn -0.00505092 0 0.0248927
vn -0.0015639 0 -0.0253518
vn 0.0015639 0 0.0253518
vn 0.00505092 -0 -0.0248927
vn 0.00807215 0 0.0240832
vn 0.0113215 -0 -0.0227373
vn 0.0140303 0 0.0211734
vn 0.0168206 -0 -0.0190323
vn 0.0190323 0 0.0168206
vn 0.0211734 -0 -0.0140303
vn 0.0227373 0 0.0113215
vn 0.0240832 -0 -0.00807215
vn 0.0248927 0 0.00505092
vn 0.0253518 -0 -0.0015639

# Mesh 'mesh1_mesh1-geometry' with 114 faces
g mesh1_mesh1-geometry
usemtl material_0_24
f  1/1/1 2/1/1 3/1/1
f  2/1/1 1/1/1 4/1/1
f  3/1/2 2/1/2 1/1/2
f  4/1/2 1/1/2 2/1/2
f  3/1/3 5/1/3 2/1/4
f  1/1/5 6/1/5 3/1/3
f  4/1/6 7/1/6 1/1/5
f  2/1/1 4/1/1 8/1/1
f  8/1/2 4/1/2 2/1/2
f  9/1/4 2/1/4 5/1/3
f  5/1/3 3/1/3 6/1/5
f  6/1/5 1/1/5 7/1/6
f  7/1/6 4/1/6 10/1/7
f  8/1/1 4/1/1 11/1/1
f  11/1/2 4/1/2 8/1/2
f  2/1/4 9/1/4 8/1/8
f  5/1/1 6/1/1 9/1/1
f  7/1/1 9/1/1 6/1/1
f  11/1/7 10/1/7 4/1/6
f  10/1/1 12/1/1 7/1/1
f  8/1/1 11/1/1 13/1/1
f  13/1/2 11/1/2 8/1/2
f  12/1/8 8/1/8 9/1/4
f  12/1/1 9/1/1 7/1/1
f  11/1/7 14/1/9 10/1/7
f  15/1/1 12/1/1 10/1/1
f  13/1/1 11/1/1 14/1/1
f  14/1/2 11/1/2 13/1/2
f  8/1/8 12/1/8 13/1/10
f  16/1/9 10/1/7 14/1/9
f  15/1/10 13/1/10 12/1/8
f  16/1/1 15/1/1 10/1/1
f  13/1/1 14/1/1 17/1/1
f  17/1/2 14/1/2 13/1/2
f  14/1/9 18/1/11 16/1/9
f  15/1/10 19/1/12 13/1/10
f  19/1/1 15/1/1 16/1/1
f  17/1/1 14/1/1 18/1/1
f  18/1/2 14/1/2 17/1/2
f  17/1/12 13/1/10 19/1/12
f  20/1/11 16/1/9 18/1/11
f  20/1/1 19/1/1 16/1/1
f  17/1/1 18/1/1 21/1/1
f  21/1/2 18/1/2 17/1/2
f  19/1/12 22/1/13 17/1/12
f  18/1/11 23/1/14 20/1/11
f  22/1/1 19/1/1 20/1/1
f  21/1/1 18/1/1 23/1/1
f  23/1/2 18/1/2 21/1/2
f  21/1/13 17/1/12 22/1/13
f  24/1/14 20/1/11 23/1/14
f  24/1/1 22/1/1 20/1/1
f  21/1/1 23/1/1 25/1/1
f  25/1/2 23/1/2 21/1/2
f  22/1/13 26/1/15 21/1/13
f  23/1/14 27/1/16 24/1/14
f  26/1/1 22/1/1 24/1/1
f  25/1/1 23/1/1 27/1/1
f  27/1/2 23/1/2 25/1/2
f  25/1/15 21/1/13 26/1/15
f  28/1/16 24/1/14 27/1/16
f  28/1/1 26/1/1 24/1/1
f  25/1/1 27/1/1 29/1/1
f  29/1/2 27/1/2 25/1/2
f  26/1/15 30/1/17 25/1/15
f  27/1/16 31/1/18 28/1/16
f  30/1/1 26/1/1 28/1/1
f  29/1/1 27/1/1 31/1/1
f  31/1/2 27/1/2 29/1/2
f  29/1/17 25/1/15 30/1/17
f  32/1/18 28/1/16 31/1/18
f  32/1/1 30/1/1 28/1/1
f  29/1/1 31/1/1 33/1/1
f  33/1/2 31/1/2 29/1/2
f  30/1/17 34/1/19 29/1/17
f  31/1/18 35/1/20 32/1/18
f  34/1/1 30/1/1 32/1/1
f  33/1/1 31/1/1 35/1/1
f  35/1/2 31/1/2 33/1/2
f  33/1/19 29/1/17 34/1/19
f  36/1/20 32/1/18 35/1/20
f  36/1/1 34/1/1 32/1/1
f  33/1/1 35/1/1 37/1/1
f  37/1/2 35/1/2 33/1/2
f  34/1/19 38/1/21 33/1/19
f  36/1/20 35/1/20 39/1/22
f  38/1/1 34/1/1 36/1/1
f  37/1/1 35/1/1 40/1/1
f  40/1/2 35/1/2 37/1/2
f  37/1/21 33/1/19 38/1/21
f  40/1/22 39/1/22 35/1/20
f  39/1/1 38/1/1 36/1/1
f  37/1/1 40/1/1 41/1/1
f  41/1/2 40/1/2 37/1/2
f  37/1/21 38/1/21 41/1/23
f  39/1/22 40/1/22 42/1/24
f  43/1/1 38/1/1 39/1/1
f  41/1/1 40/1/1 44/1/1
f  44/1/2 40/1/2 41/1/2
f  43/1/23 41/1/23 38/1/21
f  44/1/24 42/1/24 40/1/22
f  42/1/1 43/1/1 39/1/1
f  41/1/1 44/1/1 45/1/1
f  45/1/2 44/1/2 41/1/2
f  41/1/23 43/1/23 45/1/25
f  42/1/24 44/1/24 46/1/26
f  47/1/1 43/1/1 42/1/1
f  45/1/1 44/1/1 48/1/1
f  48/1/2 44/1/2 45/1/2
f  47/1/25 45/1/25 43/1/23
f  48/1/26 46/1/26 44/1/24
f  46/1/1 47/1/1 42/1/1
f  45/1/25 47/1/25 48/1/26
f  46/1/26 48/1/26 47/1/25

# Mesh 'mesh1_mesh1-geometry' with 48 faces
g mesh1_mesh1-geometry
usemtl material_2_2_8
f  2/2/24 5/3/26 3/4/26
f  3/2/26 6/3/25 1/4/25
f  1/2/25 7/3/23 4/4/23
f  5/3/26 2/2/24 9/5/24
f  6/3/25 3/2/26 5/5/26
f  7/3/23 1/2/25 6/5/25
f  10/3/21 4/2/23 7/5/23
f  8/2/22 9/3/24 2/4/24
f  4/2/23 10/3/21 11/4/21
f  9/3/24 8/2/22 12/5/22
f  10/5/21 14/4/19 11/2/21
f  13/2/20 12/3/22 8/4/22
f  14/4/19 10/5/21 16/3/19
f  12/3/22 13/2/20 15/5/20
f  16/5/19 18/4/17 14/2/19
f  13/4/20 19/5/18 15/3/20
f  19/5/18 13/4/20 17/2/18
f  18/4/17 16/5/19 20/3/17
f  17/4/18 22/5/16 19/3/18
f  20/5/17 23/4/15 18/2/17
f  22/5/16 17/4/18 21/2/16
f  23/4/15 20/5/17 24/3/15
f  21/4/16 26/5/14 22/3/16
f  24/5/15 27/4/13 23/2/15
f  26/5/14 21/4/16 25/2/14
f  27/4/13 24/5/15 28/3/13
f  25/4/14 30/5/11 26/3/14
f  28/5/13 31/4/12 27/2/13
f  30/5/11 25/4/14 29/2/11
f  31/4/12 28/5/13 32/3/12
f  29/4/11 34/5/9 30/3/11
f  32/5/12 35/4/10 31/2/12
f  34/5/9 29/4/11 33/2/9
f  35/4/10 32/5/12 36/3/10
f  33/4/9 38/5/7 34/3/9
f  39/3/8 35/2/10 36/5/10
f  38/5/7 33/4/9 37/2/7
f  35/2/10 39/3/8 40/4/8
f  41/2/6 38/3/7 37/4/7
f  42/3/4 40/2/8 39/5/8
f  38/3/7 41/2/6 43/5/6
f  40/2/8 42/3/4 44/4/4
f  45/2/5 43/3/6 41/4/6
f  46/3/3 44/2/4 42/5/4
f  43/3/6 45/2/5 47/5/5
f  44/2/4 46/3/3 48/4/3
f  48/2/3 47/3/5 45/4/5
f  47/3/5 48/2/3 46/5/3

# Mesh 'mesh1_mesh1-geometry' with 22 faces
g mesh1_mesh1-geometry
usemtl material_1_1_8
f  9/6/2 6/7/2 5/8/2
f  6/7/2 9/6/2 7/9/2
f  7/9/2 12/10/2 10/11/2
f  7/9/2 9/6/2 12/10/2
f  10/11/2 12/10/2 15/12/2
f  10/11/2 15/12/2 16/13/2
f  16/13/2 15/12/2 19/14/2
f  16/13/2 19/14/2 20/15/2
f  20/15/2 19/14/2 22/16/2
f  20/15/2 22/16/2 24/17/2
f  24/17/2 22/16/2 26/18/2
f  24/17/2 26/18/2 28/19/2
f  28/19/2 26/18/2 30/20/2
f  28/19/2 30/20/2 32/21/2
f  32/21/2 30/20/2 34/22/2
f  32/21/2 34/22/2 36/23/2
f  36/23/2 34/22/2 38/24/2
f  36/23/2 38/24/2 39/25/2
f  39/25/2 38/24/2 43/26/2
f  39/25/2 43/26/2 42/27/2
f  42/27/2 43/26/2 47/28/2
f  42/27/2 47/28/2 46/29/2

# Mesh 'mesh2_mesh2-geometry' with 24 faces
g mesh2_mesh2-geometry
usemtl material_0_0
l  14 11
l  18 14
l  11 4
l  23 18
l  4 1
l  27 23
l  1 3
l  31 27
l  3 2
l  35 31
l  2 8
l  40 35
l  8 13
l  44 40
l  13 17
l  48 44
l  17 21
l  45 48
l  21 25
l  41 45
l  25 29
l  37 41
l  29 33
l  33 37

# Mesh 'mesh3_mesh3-geometry' with 120 faces
g mesh3_mesh3-geometry
usemtl material_0_0
l  15 49
l  49 50
l  50 51
l  51 52
l  52 53
l  53 54
l  54 55
l  56 54
l  54 57
l  58 54
l  54 59
l  60 54
l  54 61
l  62 54
l  54 63
l  64 54
l  54 65
l  66 54
l  54 67
l  55 68
l  69 56
l  57 70
l  71 58
l  59 72
l  73 60
l  61 74
l  75 62
l  63 76
l  77 64
l  65 78
l  79 66
l  67 80
l  68 81
l  82 69
l  70 83
l  84 71
l  72 85
l  86 73
l  74 87
l  88 75
l  76 89
l  90 77
l  78 91
l  92 79
l  80 93
l  81 94
l  95 81
l  81 96
l  97 82
l  83 98
l  99 84
l  100 84
l  101 84
l  85 102
l  103 86
l  87 104
l  105 88
l  89 106
l  107 90
l  90 108
l  90 109
l  91 110
l  111 92
l  93 112
l  94 113
l  114 95
l  96 115
l  116 97
l  98 117
l  118 99
l  119 100
l  120 101
l  102 121
l  122 103
l  104 123
l  124 105
l  106 125
l  126 107
l  108 127
l  109 128
l  110 129
l  130 111
l  112 131
l  113 36
l  132 114
l  115 133
l  16 116
l  117 34
l  6 118
l  134 119
l  135 120
l  121 47
l  22 122
l  123 28
l  9 124
l  125 39
l  26 126
l  127 136
l  128 137
l  129 20
l  42 130
l  131 5
l  138 132
l  133 139
l  140 134
l  141 135
l  136 142
l  137 143
l  144 138
l  139 145
l  146 140
l  147 141
l  142 148
l  143 149
l  150 144
l  145 151
l  152 146
l  151 147
l  148 150
l  149 152

# Mesh 'mesh4_mesh4-geometry' with 12 faces
g mesh4_mesh4-geometry
usemtl material_0_0
l  10 153
l  153 154
l  154 155
l  155 156
l  156 157
l  157 158
l  158 159
l  159 160
l  160 161
l  161 162
l  162 163
l  163 38

