# File produced by Open Asset Import Library (http://www.assimp.sf.net)
# (assimp v3.2.202087883)

mtllib model_normalized.mtl

# 34 vertex positions
v -0.079336 0.036445 0.033286
v -0.098612 -0.093951 -0.012494
v -0.060060 -0.093951 0.079067
v -0.068603 0.036445 -0.052078
v -0.105767 -0.200850 0.044415
v -0.010774 0.036445 0.085264
v -0.038593 -0.093951 -0.091662
v -0.073969 0.183111 -0.009396
v -0.091456 -0.200850 -0.069404
v -0.014352 -0.200850 0.113719
v 0.038511 -0.093951 0.091461
v -0.045055 0.183111 0.059275
v 0.010762 0.036445 -0.085300
v -0.028920 0.183111 -0.068689
v -0.131469 -0.307233 -0.016625
v -0.080066 -0.307233 0.105456
v 0.068590 0.036445 0.052042
v 0.028908 0.183111 0.068653
v 0.014270 -0.200850 -0.113920
v 0.060116 -0.093951 -0.078938
v -0.051444 -0.307233 -0.122182
v 0.051362 -0.307233 0.121981
v 0.091374 -0.200850 0.069203
v 0.098669 -0.093951 0.012624
v 0.079392 0.036445 -0.033157
v 0.045077 0.183111 -0.059229
v 0.073991 0.183111 0.009442
v 0.079983 -0.307233 -0.105658
v 0.105963 -0.200850 -0.043956
v 0.000037 0.626197 0.000085
v -0.007174 0.556224 -0.017041
v -0.011274 0.556224 0.014941
v 0.131386 -0.307233 0.016424
v 0.018533 0.556224 0.002391

# 0 UV coordinates

# 100 vertex normals
vn -0.0234095 0 0.00985665
vn -0.0247565 0.00475252 -0.00311271
vn -0.02261 0.00658157 0.00952
vn -0.0150739 0.00475252 0.0198834
vn -0.0202409 -0 -0.0153449
vn -0.0252016 -0 -0.00316867
vn -0.0153449 0 0.0202409
vn -0.00316867 0 0.0252016
vn -0.0195496 0.00658157 -0.0148208
vn -0.00963336 0.00476905 -0.0230133
vn -0.02001 0.00369217 -0.0152028
vn -0.0231618 0.00368564 0.00975232
vn -0.0240627 0.00754936 -0.00302548
vn -0.0146515 0.00754936 0.0193262
vn -0.00306044 0.00658157 0.0243408
vn 0.00963582 0.00473593 0.0230192
vn -0.00316124 0.00367914 0.0249325
vn -0.00985665 0 -0.0234095
vn 0.00324734 0 -0.0251916
vn -0.0098078 0 -0.0234301
vn 0.00985665 0 0.0234095
vn 0.0098078 0 0.0234301
vn 0.0201927 0 0.0154083
vn -0.00941122 0.00754936 -0.0223516
vn 0.0031353 0.00661472 -0.0243223
vn 0.0150956 0.00474424 -0.019869
vn 0.00318706 0.00368564 -0.0249283
vn 0.00941122 0.00754936 0.0223516
vn 0.0195101 0.0065482 0.0148875
vn 0.0199949 0.00368564 0.0152243
vn 0.0247517 0.0047608 0.00313836
vn 0.00316867 0 -0.0252016
vn 0.0154078 0 -0.020193
vn 0.0234095 0 -0.00985665
vn 0.015366 0 -0.0202249
vn -0.0249728 0.00335712 -0.00320167
vn 0.0202409 0 0.0153449
vn 0.0251915 0 0.00324793
vn 0.0251983 0 0.003195
vn 0.00977069 0.00334724 0.0232054
vn 0.0147045 0.0075864 -0.0192713
vn 0.02261 0.00658157 -0.00952
vn 0.0231618 0.00368564 -0.00975232
vn 0.0151829 0.0033512 -0.0200851
vn 0.0240646 0.0075118 0.00310263
vn 0.0247565 -0.00475252 0.00311271
vn 0.02261 -0.00658157 -0.00952
vn 0.0150739 -0.00475252 -0.0198834
vn 0.0252016 0 0.00316867
vn 0.0153449 0 -0.0202409
vn 0.0195496 -0.00658157 0.0148208
vn 0.00963336 -0.00476905 0.0230133
vn 0.02001 -0.00369217 0.0152028
vn 0.0231618 -0.00368564 -0.00975232
vn 0.0240627 -0.00754936 0.00302548
vn 0.0146515 -0.00754936 -0.0193262
vn 0.00306044 -0.00658157 -0.0243408
vn -0.00963582 -0.00473593 -0.0230192
vn 0.00316124 -0.00367914 -0.0249325
vn -0.00324734 0 0.0251916
vn -0.0201927 0 -0.0154083
vn 0.00941122 -0.00754936 0.0223516
vn -0.0031353 -0.00661472 0.0243223
vn -0.0150956 -0.00474424 0.019869
vn -0.00318706 -0.00368564 0.0249283
vn 0 -0.0254 0
vn 0 0.0254 0
vn -0.00941122 -0.00754936 -0.0223516
vn -0.0195101 -0.0065482 -0.0148875
vn -0.0199949 -0.00368564 -0.0152243
vn -0.0247517 -0.0047608 -0.00313836
vn -0.0154078 0 0.020193
vn -0.015366 0 0.0202249
vn 0.0249728 -0.00335712 0.00320167
vn -0.0251915 0 -0.00324793
vn -0.0251983 0 -0.003195
vn -0.00977069 -0.00334724 -0.0232054
vn -0.0147045 -0.0075864 0.0192713
vn -0.02261 -0.00658157 0.00952
vn -0.0231618 -0.00368564 0.00975232
vn -0.0151829 -0.0033512 0.0200851
vn -0.0240646 -0.0075118 -0.00310263
vn -0.0200557 0.00327815 -0.0152375
vn 0.0200557 -0.00327815 0.0152375
vn -0.0232155 0.00326332 0.00977496
vn 0.0232155 -0.00326332 -0.00977496
vn -0.00316856 0.00325623 0.0249903
vn 0.00316856 -0.00325623 -0.0249903
vn -0.0248168 0.00437751 -0.00318168
vn 0.0248168 -0.00437751 0.00318168
vn 0.0031943 0.00327233 -0.024985
vn -0.0031943 -0.00327233 0.024985
vn 0.00970998 0.00436547 0.0230612
vn -0.00970998 -0.00436547 -0.0230612
vn 0.0150884 0.00436984 -0.0199601
vn -0.0150884 -0.00436984 0.0199601
vn 0.0200409 0.0032672 0.0152593
vn -0.0200409 -0.0032672 -0.0152593
vn 0.0232152 0.00326591 -0.00977483
vn -0.0232152 -0.00326591 0.00977483

# Mesh 'mesh1_mesh1-geometry' with 51 faces
g mesh1_mesh1-geometry
usemtl material_0_24
f  1//1 2//1 3//1
f  4//2 2//2 1//2
f  2//3 5//3 3//3
f  1//4 3//4 6//4
f  7//5 2//5 4//5
f  8//6 4//6 1//6
f  2//6 9//6 5//6
f  3//7 5//7 10//7
f  11//8 6//8 3//8
f  12//7 1//7 6//7
f  7//9 9//9 2//9
f  13//10 7//10 4//10
f  14//11 4//11 8//11
f  8//12 1//12 12//12
f  9//13 15//13 5//13
f  5//14 16//14 10//14
f  11//15 3//15 10//15
f  17//16 6//16 11//16
f  18//17 12//17 6//17
f  19//18 9//18 7//18
f  20//19 7//19 13//19
f  13//20 4//20 14//20
f  21//5 15//5 9//5
f  5//1 15//1 16//1
f  22//8 10//8 16//8
f  23//21 11//21 10//21
f  17//22 18//22 6//22
f  24//23 17//23 11//23
f  19//24 21//24 9//24
f  20//25 19//25 7//25
f  25//26 20//26 13//26
f  26//27 13//27 14//27
f  23//28 10//28 22//28
f  24//29 11//29 23//29
f  27//30 18//30 17//30
f  17//31 24//31 25//31
f  28//32 21//32 19//32
f  20//33 29//33 19//33
f  25//34 24//34 20//34
f  26//35 25//35 13//35
f  30//36 31//36 32//36
f  33//37 23//37 22//37
f  24//38 23//38 29//38
f  27//39 17//39 25//39
f  34//40 30//40 32//40
f  29//41 28//41 19//41
f  24//42 29//42 20//42
f  27//43 25//43 26//43
f  30//44 34//44 31//44
f  29//34 33//34 28//34
f  23//45 33//45 29//45

# Mesh 'mesh1_mesh1-geometry' with 59 faces
g mesh1_mesh1-geometry
usemtl material_1_24
f  3//34 2//34 1//34
f  1//46 2//46 4//46
f  3//47 5//47 2//47
f  6//48 3//48 1//48
f  4//37 2//37 7//37
f  1//49 4//49 8//49
f  5//49 9//49 2//49
f  10//50 5//50 3//50
f  3//32 6//32 11//32
f  6//50 1//50 12//50
f  2//51 9//51 7//51
f  4//52 7//52 13//52
f  8//53 4//53 14//53
f  12//54 1//54 8//54
f  5//55 15//55 9//55
f  10//56 16//56 5//56
f  10//57 3//57 11//57
f  11//58 6//58 17//58
f  6//59 12//59 18//59
f  7//21 9//21 19//21
f  13//60 7//60 20//60
f  14//22 4//22 13//22
f  9//37 15//37 21//37
f  16//34 15//34 5//34
f  16//32 10//32 22//32
f  10//18 11//18 23//18
f  6//20 18//20 17//20
f  11//61 17//61 24//61
f  9//62 21//62 19//62
f  7//63 19//63 20//63
f  13//64 20//64 25//64
f  14//65 13//65 26//65
f  28//66 15//66 21//66
f  21//67 15//67 28//67
f  15//66 28//66 16//66
f  16//67 28//67 15//67
f  22//68 10//68 23//68
f  16//66 33//66 22//66
f  22//67 33//67 16//67
f  23//69 11//69 24//69
f  17//70 18//70 27//70
f  25//71 24//71 17//71
f  19//8 21//8 28//8
f  19//72 29//72 20//72
f  20//1 24//1 25//1
f  13//73 25//73 26//73
f  32//74 31//74 30//74
f  16//66 28//66 33//66
f  33//67 28//67 16//67
f  22//5 23//5 33//5
f  29//75 23//75 24//75
f  25//76 17//76 27//76
f  32//77 30//77 34//77
f  19//78 28//78 29//78
f  20//79 29//79 24//79
f  26//80 25//80 27//80
f  31//81 34//81 30//81
f  28//1 33//1 29//1
f  29//82 33//82 23//82

# Mesh 'mesh1_mesh1-geometry' with 18 faces
g mesh1_mesh1-geometry
usemtl material_2_24
f  14//83 8//83 31//83
f  31//84 8//84 14//84
f  32//85 8//85 12//85
f  12//86 8//86 32//86
f  18//87 32//87 12//87
f  12//88 32//88 18//88
f  31//89 8//89 32//89
f  32//90 8//90 31//90
f  26//91 14//91 31//91
f  31//92 14//92 26//92
f  34//93 32//93 18//93
f  18//94 32//94 34//94
f  34//95 26//95 31//95
f  31//96 26//96 34//96
f  27//97 34//97 18//97
f  18//98 34//98 27//98
f  34//99 27//99 26//99
f  26//100 27//100 34//100

# Mesh 'mesh2_mesh2-geometry' with 1 faces
g mesh2_mesh2-geometry
usemtl material_1_0
l  33 28

# Mesh 'mesh3_mesh3-geometry' with 1 faces
g mesh3_mesh3-geometry
usemtl material_1_0
l  15 16

