# File produced by Open Asset Import Library (http://www.assimp.sf.net)
# (assimp v3.2.202087883)

mtllib model_normalized.mtl

# 60 vertex positions
v -0.097572 -0.085000 -0.097570
v 0.000283 -0.085000 -0.097570
v -0.097572 -0.116313 -0.097570
v 0.098138 -0.085000 -0.097570
v -0.082603 0.004811 -0.082609
v -0.097572 -0.085000 0.098140
v -0.081263 -0.085000 -0.081261
v 0.098138 -0.116313 -0.097570
v 0.083169 0.004811 -0.082609
v -0.082603 0.004811 0.083163
v -0.097572 -0.116313 0.098140
v -0.081263 -0.085000 0.081831
v 0.098138 -0.116313 0.098140
v 0.098138 -0.085000 0.098140
v 0.083169 0.004811 0.083163
v -0.082603 0.006151 -0.090651
v -0.090647 0.006151 -0.082609
v 0.000283 -0.085000 0.098140
v 0.081828 -0.085000 0.081831
v -0.081263 0.012855 0.081831
v 0.091213 0.006151 0.083163
v 0.083169 0.006151 -0.090651
v -0.090650 0.007456 -0.090426
v 0.083169 0.006151 0.091205
v -0.090647 0.006151 0.083163
v -0.089307 0.014195 -0.081261
v -0.090650 0.006116 -0.082384
v -0.081263 0.012855 -0.081261
v 0.091213 0.006151 -0.082609
v 0.089872 0.014195 0.081831
v 0.091216 0.007456 0.090997
v 0.091216 0.006116 0.082955
v 0.081828 0.014195 -0.089303
v -0.089308 0.015500 -0.089094
v -0.082603 0.006151 0.091205
v -0.090650 0.007456 0.090997
v -0.090650 0.006116 0.082955
v -0.089307 0.014195 0.081831
v -0.089308 0.014160 -0.081052
v 0.081828 0.012855 0.081831
v -0.064954 0.012855 0.065522
v -0.064954 0.012855 -0.064951
v 0.082952 0.006116 -0.090651
v 0.090996 0.007456 -0.090651
v 0.089875 0.014160 0.081606
v -0.081263 0.014195 -0.089303
v 0.089656 0.015500 -0.089303
v 0.081828 0.014195 0.089873
v 0.089875 0.015500 0.089648
v -0.089308 0.014160 0.081606
v 0.065519 0.012855 0.065522
v -0.081263 0.014195 0.089873
v -0.089308 0.015500 0.089648
v 0.089872 0.014195 -0.081261
v 0.065519 0.012855 -0.064951
v 0.081612 0.014160 -0.089303
v 0.000283 0.844621 0.000285
v 0.081828 0.012855 -0.081261
v 0.081828 -0.085000 -0.081261
v 0.000283 0.012855 0.000285

# 0 UV coordinates

# 54 vertex normals
vn 0 0 -0.0254
vn 0 -0 0.0254
vn 0 0.0254 0
vn 0 -0.0254 0
vn 0 0.00417573 -0.0250544
vn 0 -0.00417573 0.0250544
vn -0.0254 0 0
vn 0.0254 -0 0
vn -0.0250544 0.00417573 0
vn 0.0250544 -0.00417573 0
vn 0.0250544 0.00417573 0
vn -0.0250544 -0.00417573 0
vn 0 -0.0250544 -0.00417573
vn 0 0.0250544 0.00417573
vn -0.00417573 -0.0250544 0
vn 0.00417573 0.0250544 0
vn 0 0.00417573 0.0250544
vn 0 -0.00417573 -0.0250544
vn 0.00417573 -0.0250544 -0
vn -0.00417573 0.0250544 0
vn -0.00412041 -0.0247226 -0.00412041
vn 0.00412041 0.0247226 0.00412041
vn 0 -0.0250544 0.00417573
vn 0 0.0250544 -0.00417573
vn 0.000677393 0.00406436 -0.0250636
vn -0.000677393 -0.00406436 0.0250636
vn -0.000677393 0.00406436 0.0250636
vn 0.000677393 -0.00406436 -0.0250636
vn 0.00412041 -0.0247226 0.00412041
vn -0.00412041 0.0247226 -0.00412041
vn 0.0250636 0.00406436 0.000677393
vn -0.0250636 -0.00406436 -0.000677393
vn -0.00412041 -0.0247226 0.00412041
vn 0.00412041 0.0247226 -0.00412041
vn 0.000677393 0.00406436 0.0250636
vn -0.000677393 -0.00406436 -0.0250636
vn -0.0250636 0.00406362 0.000681838
vn 0.0250636 -0.00406362 -0.000681838
vn 0.00412041 -0.0247226 -0.00412041
vn -0.00412041 0.0247226 0.00412041
vn 0.0250636 0.00406362 -0.000681838
vn -0.0250636 -0.00406362 0.000681838
vn -0.000681838 0.00406362 -0.0250636
vn 0.000681838 -0.00406362 0.0250636
vn -0.0250636 0.00406362 -0.000681838
vn 0.0250636 -0.00406362 0.000681838
vn 0 0.00198605 0.0253222
vn 0 -0.00198605 -0.0253222
vn -0.0253222 0.00198605 0
vn 0.0253222 -0.00198605 -0
vn 0 0.00198605 -0.0253222
vn 0 -0.00198605 0.0253222
vn 0.0253222 0.00198605 0
vn -0.0253222 -0.00198605 0

# Mesh 'mesh1_mesh1-geometry' with 280 faces
g mesh1_mesh1-geometry
usemtl material_0_24
f  1//1 2//1 3//1
f  3//2 2//2 1//2
f  1//3 4//3 2//3
f  2//4 4//4 1//4
f  5//5 2//5 1//5
f  1//6 2//6 5//6
f  3//7 6//7 1//7
f  1//8 6//8 3//8
f  1//3 7//3 4//3
f  4//4 7//4 1//4
f  2//1 4//1 8//1
f  8//2 4//2 2//2
f  2//5 9//5 4//5
f  4//6 9//6 2//6
f  9//5 2//5 5//5
f  5//6 2//6 9//6
f  1//9 10//9 5//9
f  5//10 10//10 1//10
f  6//7 3//7 11//7
f  11//8 3//8 6//8
f  6//3 12//3 1//3
f  1//4 12//4 6//4
f  10//9 1//9 6//9
f  6//10 1//10 10//10
f  1//3 12//3 7//3
f  7//4 12//4 1//4
f  12//3 4//3 7//3
f  7//4 4//4 12//4
f  4//8 13//8 8//8
f  8//7 13//7 4//7
f  9//11 14//11 4//11
f  4//12 14//12 9//12
f  5//3 15//3 9//3
f  9//4 15//4 5//4
f  16//13 9//13 5//13
f  5//14 9//14 16//14
f  15//3 5//3 10//3
f  10//4 5//4 15//4
f  10//15 17//15 5//15
f  5//16 17//16 10//16
f  11//2 18//2 6//2
f  6//1 18//1 11//1
f  12//3 6//3 19//3
f  19//4 6//4 12//4
f  18//17 10//17 6//17
f  6//18 10//18 18//18
f  20//7 7//7 12//7
f  12//8 7//8 20//8
f  19//3 4//3 12//3
f  12//4 4//4 19//4
f  7//1 20//1 12//1
f  12//2 20//2 7//2
f  13//8 4//8 14//8
f  14//7 4//7 13//7
f  14//11 9//11 15//11
f  15//12 9//12 14//12
f  19//3 14//3 4//3
f  4//4 14//4 19//4
f  9//19 21//19 15//19
f  15//20 21//20 9//20
f  9//13 16//13 22//13
f  22//14 16//14 9//14
f  5//21 23//21 16//21
f  16//22 23//22 5//22
f  18//17 15//17 10//17
f  10//18 15//18 18//18
f  24//23 10//23 15//23
f  15//24 10//24 24//24
f  17//15 10//15 25//15
f  25//16 10//16 17//16
f  26//25 5//25 17//25
f  17//26 5//26 26//26
f  17//21 5//21 27//21
f  5//21 17//21 23//21
f  27//22 5//22 17//22
f  23//22 17//22 5//22
f  18//3 19//3 6//3
f  6//4 19//4 18//4
f  19//2 20//2 12//2
f  12//1 20//1 19//1
f  7//7 20//7 28//7
f  28//8 20//8 7//8
f  20//8 19//8 12//8
f  12//7 19//7 20//7
f  20//1 7//1 28//1
f  28//2 7//2 20//2
f  18//2 13//2 14//2
f  14//1 13//1 18//1
f  15//17 18//17 14//17
f  14//18 18//18 15//18
f  14//3 19//3 18//3
f  18//4 19//4 14//4
f  21//19 9//19 29//19
f  29//20 9//20 21//20
f  30//27 15//27 21//27
f  21//28 15//28 30//28
f  31//29 15//29 21//29
f  21//29 15//29 32//29
f  21//30 15//30 31//30
f  32//30 15//30 21//30
f  16//5 33//5 22//5
f  22//6 33//6 16//6
f  22//31 20//31 9//31
f  9//32 20//32 22//32
f  34//5 16//5 23//5
f  23//6 16//6 34//6
f  10//23 24//23 35//23
f  35//24 24//24 10//24
f  15//29 31//29 24//29
f  24//30 31//30 15//30
f  10//33 36//33 25//33
f  10//33 25//33 37//33
f  25//34 36//34 10//34
f  37//34 25//34 10//34
f  10//35 38//35 25//35
f  25//36 38//36 10//36
f  38//9 17//9 25//9
f  25//10 17//10 38//10
f  5//25 26//25 28//25
f  28//26 26//26 5//26
f  17//9 38//9 26//9
f  26//10 38//10 17//10
f  5//6 39//6 27//6
f  27//5 39//5 5//5
f  39//37 17//37 27//37
f  27//38 17//38 39//38
f  17//37 39//37 23//37
f  23//38 39//38 17//38
f  20//2 19//2 40//2
f  40//1 19//1 20//1
f  20//3 41//3 28//3
f  28//4 41//4 20//4
f  28//16 38//16 20//16
f  20//15 38//15 28//15
f  19//8 20//8 40//8
f  40//7 20//7 19//7
f  28//3 42//3 20//3
f  20//4 42//4 28//4
f  33//14 28//14 20//14
f  20//13 28//13 33//13
f  43//39 29//39 9//39
f  9//40 29//40 43//40
f  44//11 21//11 29//11
f  29//12 21//12 44//12
f  15//27 30//27 40//27
f  40//28 30//28 15//28
f  21//11 44//11 30//11
f  30//12 44//12 21//12
f  21//41 45//41 31//41
f  31//42 45//42 21//42
f  15//18 45//18 32//18
f  32//17 45//17 15//17
f  45//41 21//41 32//41
f  32//42 21//42 45//42
f  33//5 16//5 46//5
f  46//6 16//6 33//6
f  20//31 22//31 33//31
f  33//32 22//32 20//32
f  47//43 22//43 33//43
f  33//43 22//43 43//43
f  33//44 22//44 47//44
f  43//44 22//44 33//44
f  20//12 43//12 9//12
f  9//11 43//11 20//11
f  46//5 16//5 34//5
f  34//6 16//6 46//6
f  23//37 26//37 34//37
f  34//38 26//38 23//38
f  24//17 48//17 35//17
f  35//18 48//18 24//18
f  36//33 10//33 35//33
f  35//34 10//34 36//34
f  49//17 24//17 31//17
f  31//18 24//18 49//18
f  50//45 25//45 36//45
f  36//46 25//46 50//46
f  25//45 50//45 37//45
f  37//46 50//46 25//46
f  50//18 10//18 37//18
f  37//17 10//17 50//17
f  38//35 10//35 20//35
f  20//36 10//36 38//36
f  38//16 28//16 26//16
f  26//15 28//15 38//15
f  28//22 26//22 39//22
f  26//22 28//22 46//22
f  39//21 26//21 28//21
f  46//21 28//21 26//21
f  39//6 5//6 28//6
f  28//5 5//5 39//5
f  23//37 39//37 26//37
f  26//38 39//38 23//38
f  40//3 51//3 20//3
f  20//4 51//4 40//4
f  52//24 40//24 20//24
f  20//23 40//23 52//23
f  41//3 20//3 51//3
f  51//4 20//4 41//4
f  28//3 41//3 42//3
f  42//4 41//4 28//4
f  53//34 20//34 38//34
f  38//34 20//34 50//34
f  38//33 20//33 53//33
f  50//33 20//33 38//33
f  51//3 40//3 20//3
f  20//4 40//4 51//4
f  40//20 54//20 20//20
f  20//19 54//19 40//19
f  55//3 20//3 42//3
f  42//4 20//4 55//4
f  28//14 33//14 46//14
f  46//13 33//13 28//13
f  20//40 47//40 33//40
f  56//40 20//40 33//40
f  33//39 47//39 20//39
f  33//39 20//39 56//39
f  29//39 43//39 22//39
f  22//40 43//40 29//40
f  44//39 29//39 22//39
f  22//40 29//40 44//40
f  54//20 40//20 30//20
f  30//19 40//19 54//19
f  40//30 49//30 30//30
f  40//30 30//30 45//30
f  30//29 49//29 40//29
f  45//29 30//29 40//29
f  45//18 15//18 40//18
f  40//17 15//17 45//17
f  30//11 44//11 54//11
f  54//12 44//12 30//12
f  31//41 45//41 30//41
f  30//42 45//42 31//42
f  22//43 47//43 44//43
f  44//44 47//44 22//44
f  33//43 43//43 56//43
f  56//44 43//44 33//44
f  43//12 20//12 56//12
f  56//11 20//11 43//11
f  26//22 46//22 34//22
f  34//21 46//21 26//21
f  24//17 49//17 48//17
f  48//18 49//18 24//18
f  35//17 48//17 52//17
f  52//18 48//18 35//18
f  35//17 53//17 36//17
f  36//18 53//18 35//18
f  31//41 30//41 49//41
f  49//42 30//42 31//42
f  50//45 36//45 38//45
f  38//46 36//46 50//46
f  10//18 50//18 20//18
f  20//17 50//17 10//17
f  40//24 52//24 48//24
f  48//23 52//23 40//23
f  20//34 53//34 52//34
f  52//33 53//33 20//33
f  55//3 41//3 51//3
f  51//4 41//4 55//4
f  41//47 51//47 57//47
f  57//48 51//48 41//48
f  41//3 55//3 42//3
f  42//4 55//4 41//4
f  57//49 42//49 41//49
f  41//50 42//50 57//50
f  38//45 36//45 53//45
f  53//46 36//46 38//46
f  51//3 20//3 55//3
f  55//4 20//4 51//4
f  47//40 20//40 54//40
f  54//39 20//39 47//39
f  42//51 57//51 55//51
f  55//52 57//52 42//52
f  49//30 40//30 48//30
f  48//29 40//29 49//29
f  47//11 54//11 44//11
f  44//12 54//12 47//12
f  35//17 52//17 53//17
f  53//18 52//18 35//18
f  57//53 51//53 55//53
f  55//54 51//54 57//54

# Mesh 'mesh2_mesh2-geometry' with 102 faces
g mesh2_mesh2-geometry
usemtl material_0_0
l  2 1
l  2 4
l  6 1
l  1 3
l  1 5
l  4 14
l  4 8
l  4 9
l  18 6
l  6 11
l  6 10
l  5 28
l  5 10
l  9 5
l  5 16
l  5 17
l  5 27
l  14 18
l  14 13
l  14 15
l  9 58
l  15 9
l  9 22
l  9 29
l  9 43
l  10 58
l  10 15
l  10 35
l  10 25
l  10 37
l  58 28
l  28 58
l  7 28
l  28 46
l  28 26
l  28 39
l  22 16
l  16 23
l  17 26
l  17 25
l  17 23
l  27 17
l  27 39
l  15 40
l  15 21
l  15 24
l  15 32
l  40 58
l  59 58
l  58 33
l  58 54
l  58 56
l  22 33
l  22 44
l  43 22
l  21 29
l  29 44
l  43 56
l  58 40
l  59 58
l  58 52
l  58 38
l  58 50
l  35 36
l  35 24
l  37 25
l  25 36
l  25 38
l  37 50
l  7 59
l  59 7
l  46 34
l  33 46
l  26 38
l  39 26
l  26 34
l  23 34
l  19 40
l  40 30
l  40 48
l  40 45
l  21 30
l  21 31
l  32 21
l  24 31
l  32 45
l  19 59
l  56 33
l  33 47
l  54 47
l  30 54
l  44 47
l  59 19
l  52 48
l  52 53
l  50 38
l  38 53
l  36 53
l  45 30
l  30 49
l  48 49
l  31 49

# Mesh 'mesh3_mesh3-geometry' with 9 faces
g mesh3_mesh3-geometry
usemtl material_0_0
l  42 41
l  55 42
l  42 57
l  41 51
l  41 57
l  51 55
l  55 57
l  60 57
l  51 57

