# File produced by Open Asset Import Library (http://www.assimp.sf.net)
# (assimp v3.2.202087883)

mtllib model_normalized.mtl

# 112 vertex positions
v -0.122756 -0.291297 0.251081
v 0.080363 -0.279376 0.251132
v -0.120755 -0.279376 0.231046
v -0.123227 -0.294103 0.255796
v 0.082469 -0.269464 0.230040
v 0.078362 -0.291297 0.271167
v -0.118649 -0.269464 0.209955
v 0.077910 -0.293989 0.275691
v 0.084661 -0.261657 0.208091
v 0.073304 -0.210334 0.321810
v -0.127814 -0.295293 0.301724
v -0.127814 -0.210334 0.301724
v -0.116457 -0.261657 0.188005
v 0.073304 -0.297234 0.321810
v 0.110430 -0.210334 -0.049933
v 0.086918 -0.256026 0.185492
v 0.132054 -0.256026 0.189999
v -0.161593 -0.261657 0.183498
v -0.114200 -0.256026 0.165406
v -0.090688 -0.210334 -0.070019
v 0.129797 -0.261657 0.212599
v 0.134354 -0.252627 0.166963
v 0.089219 -0.252627 0.162455
v -0.159335 -0.256026 0.160898
v -0.111899 -0.252627 0.142369
v 0.136677 -0.251490 0.143707
v 0.091541 -0.251490 0.139199
v -0.157035 -0.252627 0.137862
v -0.109576 -0.251490 0.119113
v 0.093864 -0.252627 0.115943
v 0.139000 -0.252627 0.120451
v -0.154712 -0.251490 0.114606
v -0.107254 -0.252627 0.095857
v -0.090688 0.365379 -0.070019
v -0.004902 0.365379 -0.066905
v 0.110430 0.365379 -0.049933
v 0.096164 -0.256026 0.092907
v 0.141300 -0.256026 0.097414
v -0.104953 -0.256026 0.072821
v -0.152390 -0.252627 0.091350
v -0.078079 0.365379 -0.098918
v -0.087706 0.365379 -0.099879
v -0.020567 0.365379 -0.070633
v 0.011034 0.365379 -0.064591
v 0.105177 0.365379 -0.080616
v 0.113412 0.365379 -0.079793
v 0.098422 -0.261657 0.070307
v 0.143558 -0.261657 0.074815
v -0.102696 -0.261657 0.050222
v -0.150089 -0.256026 0.068313
v -0.064709 0.365379 -0.089943
v -0.035837 0.365379 -0.075744
v 0.027113 0.365379 -0.063708
v 0.090295 0.365379 -0.074463
v 0.099222 -0.264509 0.062288
v 0.144358 -0.264509 0.066796
v -0.101895 -0.264509 0.042203
v -0.147832 -0.261657 0.045714
v -0.086914 0.449728 -0.107800
v 0.125147 0.449728 -0.144682
v -0.087706 0.449728 -0.099879
v -0.050591 0.365379 -0.082198
v 0.043207 0.365379 -0.064264
v 0.114203 0.449728 -0.087715
v 0.119406 0.449728 -0.087195
v 0.105177 0.449728 -0.080616
v 0.113412 0.449728 -0.079793
v 0.074924 0.365379 -0.069663
v 0.100614 -0.269464 0.048358
v -0.100504 -0.269464 0.028273
v -0.147031 -0.264509 0.037695
v -0.103128 -0.291297 -0.109420
v -0.086914 -0.291297 -0.107800
v -0.103128 0.449728 -0.109420
v -0.078079 0.449728 -0.098918
v -0.020567 0.449728 -0.070633
v -0.004902 0.449728 -0.066905
v 0.011034 0.449728 -0.064591
v 0.027113 0.449728 -0.063708
v 0.059186 0.365379 -0.066254
v 0.090295 0.449728 -0.074463
v 0.102720 -0.279376 0.027266
v -0.098398 -0.279376 0.007181
v 0.104721 -0.291297 0.007232
v -0.096397 -0.291297 -0.012854
v 0.014163 0.449728 -0.258353
v -0.064709 0.449728 -0.089943
v -0.035837 0.449728 -0.075744
v -0.050591 0.449728 -0.082198
v 0.043207 0.449728 -0.064264
v 0.074924 0.449728 -0.069663
v -0.030958 0.449728 -0.240731
v 0.059186 0.449728 -0.066254
v -0.069677 0.449728 -0.266726
v -0.087242 0.449728 -0.268481
v -0.046870 0.449728 -0.242319
v -0.028770 0.449728 -0.262641
v 0.114203 0.365379 -0.087715
v 0.114203 -0.291297 -0.087715
v 0.113412 -0.291297 -0.079793
v -0.090688 -0.291297 -0.070019
v 0.110430 -0.291297 -0.049933
v 0.119406 -0.291297 -0.087195
v 0.118614 -0.291297 -0.079273
v -0.087706 -0.291297 -0.099879
v 0.125147 -0.291297 -0.144682
v 0.014163 -0.291297 -0.258353
v -0.087242 -0.291297 -0.268481
v -0.069677 -0.291297 -0.266726
v -0.030958 -0.291297 -0.240731
v -0.028770 -0.291297 -0.262641
v -0.046870 -0.291297 -0.242319

# 261 UV coordinates
vt 0 0 0
vt -0.328374 0.054058 0
vt -0.288189 0 0
vt -0.272292 0.00796 0
vt 0.902466 0.039414 0
vt 0.922766 0.027791 0
vt 0.974078 0.106725 0
vt -0.291931 -0.001873 0
vt 0.927544 0.025055 0
vt -0.255556 0.014578 0
vt 0.881095 0.049077 0
vt -0.328374 -0.002668 0
vt 0.974078 0.023895 0
vt -0.23814 0.019791 0
vt 0.858856 0.056689 0
vt -0.291779 -0.001797 0
vt 0.927349 0.025166 0
vt -0.220208 0.02355 0
vt 0.835958 0.062178 0
vt -0.328374 -0.003964 0
vt 0.974078 0.022003 0
vt -0.201929 0.02582 0
vt 0.812617 0.065492 0
vt -0.183476 0.026579 0
vt -0.033402 0.054058 0
vt 0.597419 0.106725 0
vt 0.789053 0.0666 0
vt -0.207335 0.054058 0
vt -0.366918 0.438455 0
vt -0.366918 0.054058 0
vt 0.277431 0.104148 0
vt 0.277431 0.673595 0
vt 0.513838 0.104148 0
vt -0.165022 0.02582 0
vt 0.765489 0.065492 0
vt -0.207335 0.438455 0
vt 0.513838 0.673595 0
vt 0.003424 0.438455 0
vt 0.033402 0.054058 0
vt 0.033402 0.438455 0
vt 0.59321 0.675574 0
vt 0.59321 0.106128 0
vt 0.548799 0.675574 0
vt -0.146743 0.02355 0
vt 0.742148 0.062178 0
vt -0.033402 0.438455 0
vt -0.009709 0.438455 0
vt 0.552411 0.673687 0
vt 0.602057 0.104241 0
vt 0.602057 0.673687 0
vt 0.003424 0 0
vt 0.548799 0.026046 0
vt 0.009709 0.438455 0
vt 0.558111 0.675574 0
vt -0.128811 0.019791 0
vt 0.71925 0.056689 0
vt -0.003424 0.494774 0
vt 0.539241 0.757119 0
vt 0.009709 0 0
vt 0.558111 0.026046 0
vt -0.366918 0.494774 0
vt -0.366918 0 0
vt 0.284374 0.672382 0
vt 0.284374 0.022854 0
vt 0.284374 0.755814 0
vt 0.009709 0.494774 0
vt 0.071752 0.672382 0
vt 0.06244 0.672382 0
vt 0.071752 0.755814 0
vt -0.122448 0.017886 0
vt 0.711125 0.053908 0
vt -0.033402 0 0
vt 0.602057 0.024159 0
vt -0.009709 0.494774 0
vt 0.552411 0.757119 0
vt -0.207335 0.494774 0
vt -0.214973 0.438455 0
vt 0.520781 0.672382 0
vt 0.509466 0.672382 0
vt 0.520781 0.755814 0
vt -0.263687 0.438455 0
vt -0.276401 0.494774 0
vt -0.276401 0.438455 0
vt 0.415291 0.672382 0
vt 0.415291 0.755814 0
vt 0.434126 0.672382 0
vt -0.276003 0.438455 0
vt -0.288717 0.494774 0
vt -0.288717 0.438455 0
vt 0.396456 0.672382 0
vt 0.396456 0.755814 0
vt 0.033402 0 0
vt 0.59321 0.026046 0
vt -0.200991 0.263771 0
vt -0.204102 0.257981 0
vt -0.198787 0.260819 0
vt 0.590477 0.228391 0
vt 0.582603 0.224187 0
vt 0.587212 0.232764 0
vt -0.371046 0.494774 0
vt 0.278259 0.755814 0
vt 0.003424 0.494774 0
vt 0.06244 0.755814 0
vt -0.360383 0.438455 0
vt 0.294055 0.672382 0
vt -0.111395 0.014578 0
vt 0.697011 0.049077 0
vt -0.003424 0 0
vt 0.539241 0.024159 0
vt -0.078762 0 0
vt 0.597419 0.027791 0
vt 0.65534 0.027791 0
vt -0.194099 0.494774 0
vt -0.206813 0.438455 0
vt -0.194099 0.438455 0
vt 0.490631 0.672382 0
vt 0.509466 0.755814 0
vt -0.214973 0.494774 0
vt -0.249215 0.494774 0
vt -0.261929 0.438455 0
vt -0.249215 0.438455 0
vt 0.452961 0.672382 0
vt 0.452961 0.755814 0
vt -0.263687 0.494774 0
vt 0.434126 0.755814 0
vt -0.276003 0.494774 0
vt -0.298779 0.494774 0
vt -0.286065 0.438455 0
vt -0.286065 0.494774 0
vt 0.377622 0.755814 0
vt -0.298779 0.438455 0
vt 0.377622 0.672382 0
vt -0.094659 0.00796 0
vt 0.67564 0.039414 0
vt -0.206305 0.260933 0
vt 0.579338 0.22856 0
vt -0.371046 0 0
vt 0.278259 0.022854 0
vt -0.300409 0.438455 0
vt -0.313124 0.494774 0
vt -0.313124 0.438455 0
vt 0.283447 0.672382 0
vt 0.283447 0.755814 0
vt 0.302282 0.672382 0
vt -0.360383 0.494774 0
vt 0.294055 0.755814 0
vt -0.009709 0 0
vt 0.552411 0.024159 0
vt -0.206813 0.494774 0
vt 0.490631 0.755814 0
vt -0.214282 0.494774 0
vt -0.226996 0.438455 0
vt -0.214282 0.438455 0
vt 0.471796 0.672382 0
vt -0.232703 0.494774 0
vt -0.245417 0.438455 0
vt -0.232703 0.438455 0
vt 0.471796 0.755814 0
vt -0.261929 0.494774 0
vt -0.245417 0.494774 0
vt -0.306506 0.494774 0
vt -0.293792 0.438455 0
vt -0.293792 0.494774 0
vt 0.358787 0.755814 0
vt -0.306506 0.438455 0
vt 0.358787 0.672382 0
vt -0.042191 0.494774 0
vt 0.533661 0.758192 0
vt 0.533661 0.025231 0
vt 0.466087 0.758192 0
vt -0.302445 0.438455 0
vt -0.315159 0.494774 0
vt -0.315159 0.438455 0
vt 0.302282 0.755814 0
vt 0.321117 0.672382 0
vt -0.300409 0.494774 0
vt -0.226996 0.494774 0
vt -0.311837 0.494774 0
vt -0.299123 0.438455 0
vt -0.299123 0.494774 0
vt 0.339952 0.755814 0
vt -0.311837 0.438455 0
vt 0.339952 0.672382 0
vt -0.042191 0 0
vt 0.466087 0.025231 0
vt -0.302015 0.438455 0
vt -0.314729 0.494774 0
vt -0.314729 0.438455 0
vt 0.321117 0.755814 0
vt -0.302445 0.494774 0
vt 0.122788 0.494774 0
vt 0.274782 0.757119 0
vt 0.131768 0 0
vt 0.257201 0.494774 0
vt 0.131768 0.494774 0
vt 0.393981 0.757119 0
vt 0.518801 0.757119 0
vt 0.393981 0.024159 0
vt -0.302015 0.494774 0
vt 0.257201 0 0
vt 0.518801 0.024159 0
vt 0.122788 0 0
vt 0.274782 0.024159 0
vt 0.240867 0.494774 0
vt 0.274933 0 0
vt 0.274933 0.494774 0
vt 0.343515 0.757119 0
vt 0.208408 0 0
vt 0.19447 0.494774 0
vt 0.19447 0 0
vt 0.29543 0.024159 0
vt 0.208408 0.494774 0
vt 0.29543 0.757119 0
vt 0.228241 0.494774 0
vt 0.240867 0 0
vt 0.343515 0.024159 0
vt 0.324811 0.757119 0
vt 0.105403 0 0
vt 0.105403 0.494774 0
vt 0.31776 0.757119 0
vt 0.31776 0.024159 0
vt 0.075782 0 0
vt 0.102156 0.494774 0
vt 0.075782 0.494774 0
vt 0.28574 0.757119 0
vt 0.28574 0.024159 0
vt 0.228241 0 0
vt 0.324811 0.024159 0
vt 0.102156 0 0
vt 0 0.461452 0
vt 0.745382 1 0
vt 0.254618 0 0
vt 1 0.538548 0
vt 0 0.754742 0
vt 0.235165 0.332704 0
vt 0.380123 0 0
vt 0.469505 0.070752 0
vt 0.451311 0.106876 0
vt 0.27159 0.278187 0
vt 0.202768 0.391079 0
vt 0.089383 0.825494 0
vt 0.104948 0.794588 0
vt 0.401972 0.141965 0
vt 0.311751 0.227964 0
vt 0.174656 0.452846 0
vt 0.109006 0.723656 0
vt 0.275344 1 0
vt 0.493218 0.089522 0
vt 0.355327 0.182436 0
vt 0.151054 0.517513 0
vt 0.103263 0.863787 0
vt 0.113095 0.844264 0
vt 0.118098 0.653461 0
vt 0.523862 0.028678 0
vt 0.132151 0.584563 0
vt 0.808338 0.786118 0
vt 0.823897 0.573086 0
vt 1 0.405569 0
vt 0.9668 0.471488 0
vt 0.853971 0.513373 0
vt 0.889484 0.625002 0

# 62 vertex normals
vn -0.00128601 0.0218561 0.0128769
vn -0.001179 0.022459 0.0118052
vn -0.000956833 0.0235043 0.00958073
vn -0.000842241 0.0239443 0.00843324
vn 0.00252414 0 -0.0252743
vn 0 -0.0254 0
vn -0.000487606 0.0249216 0.00488234
vn -0.000607332 0.0246538 0.00608125
vn 0.000487606 -0.0249216 -0.00488234
vn 0.000607332 -0.0246538 -0.00608125
vn 0.000244962 -0.0252801 -0.00245274
vn -0.000244962 0.0252801 0.00245274
vn 0 0.0254 0
vn 0.000244962 0.0252801 -0.00245274
vn -0.000244962 -0.0252801 0.00245274
vn 0.000487606 0.0249216 -0.00488234
vn -0.000487606 -0.0249216 0.00488234
vn 0.00072565 0.0243278 -0.00726583
vn -0.00072565 -0.0243278 0.00726583
vn 0.000842241 0.0239443 -0.00843324
vn -0.000842241 -0.0239443 0.00843324
vn 0.000956833 0.0235043 -0.00958073
vn 0.001179 0.022459 -0.0118052
vn 0.00128601 0.0218561 -0.0128769
vn 0.001179 -0.022459 -0.0118052
vn 0.00128601 -0.0218561 -0.0128769
vn 0.000956833 -0.0235043 -0.00958073
vn 0.000842241 -0.0239443 -0.00843324
vn -0.00252414 0 0.0252743
vn -0.000956833 -0.0235043 0.00958073
vn -0.001179 -0.022459 0.0118052
vn -0.00128601 -0.0218561 0.0128769
vn 0.0252743 0 0.00252414
vn -0.0252743 0 -0.00252414
vn 0.00697799 0 -0.0244227
vn 0.00477013 0 -0.0249481
vn -0.00477013 0 0.0249481
vn -0.00697799 0 0.0244227
vn 0.0141555 0 -0.0210898
vn 0.0131992 0 -0.0217012
vn -0.0141555 0 0.0210898
vn -0.0131992 0 0.0217012
vn 0.00913015 0 -0.0237023
vn -0.00913015 0 0.0237023
vn 0.000258036 0 -0.0253987
vn -0.000258036 0 0.0253987
vn -0.00864672 0 -0.0238829
vn -0.00970507 0 -0.0234728
vn 0.00970507 0 0.0234728
vn 0.00864672 0 0.0238829
vn 0.0112094 0 -0.0227927
vn -0.0112094 0 0.0227927
vn -0.00201013 0 -0.0253203
vn 0.00201013 0 0.0253203
vn -0.00648037 0 -0.0245594
vn 0.00648037 0 0.0245594
vn -0.00426227 0 -0.0250398
vn 0.00426227 0 0.0250398
vn -0.0181741 0 0.0177443
vn 0.0181741 0 -0.0177443
vn -0.0185583 0 0.0173421
vn 0.0185583 0 -0.0173421

# Mesh 'mesh1_mesh1-geometry' with 101 faces
g mesh1_mesh1-geometry
usemtl material_0_24
f  1/1/1 2/1/2 3/1/2
f  2/1/2 1/1/1 4/1/1
f  5/1/3 3/1/2 2/1/2
f  2/1/2 4/1/1 6/1/1
f  3/1/2 5/1/3 7/1/3
f  6/1/1 4/1/1 8/1/1
f  9/1/4 7/1/3 5/1/3
f  10/1/5 11/1/5 12/1/5
f  7/1/3 9/1/4 13/1/4
f  11/1/5 10/1/5 14/1/5
f  12/1/6 15/1/6 10/1/6
f  16/1/7 13/1/8 9/1/8
f  17/1/9 9/1/10 16/1/9
f  18/1/10 19/1/9 13/1/10
f  13/1/8 16/1/7 19/1/7
f  15/1/6 12/1/6 20/1/6
f  9/1/10 17/1/9 21/1/10
f  16/1/9 22/1/11 17/1/9
f  23/1/12 19/1/7 16/1/7
f  22/1/11 16/1/9 23/1/11
f  19/1/9 18/1/10 24/1/9
f  19/1/7 23/1/12 25/1/12
f  24/1/9 25/1/11 19/1/9
f  23/1/11 26/1/6 22/1/11
f  27/1/13 25/1/12 23/1/12
f  26/1/6 23/1/11 27/1/6
f  25/1/11 24/1/9 28/1/11
f  25/1/12 27/1/13 29/1/13
f  28/1/11 29/1/6 25/1/11
f  30/1/14 29/1/13 27/1/13
f  31/1/15 27/1/6 30/1/15
f  27/1/6 31/1/15 26/1/6
f  29/1/6 28/1/11 32/1/6
f  29/1/13 30/1/14 33/1/14
f  32/1/6 33/1/15 29/1/6
f  34/1/6 35/1/6 36/1/6
f  37/1/16 33/1/14 30/1/14
f  38/1/17 30/1/15 37/1/17
f  30/1/15 38/1/17 31/1/15
f  33/1/14 37/1/16 39/1/16
f  40/1/15 39/1/17 33/1/15
f  33/1/15 32/1/6 40/1/15
f  41/1/6 34/1/6 42/1/6
f  34/1/6 43/1/6 35/1/6
f  36/1/6 35/1/6 44/1/6
f  36/1/6 45/1/6 46/1/6
f  47/1/18 39/1/16 37/1/16
f  48/1/19 37/1/17 47/1/19
f  37/1/17 48/1/19 38/1/17
f  39/1/16 47/1/18 49/1/18
f  50/1/17 49/1/19 39/1/17
f  39/1/17 40/1/15 50/1/17
f  34/1/6 41/1/6 51/1/6
f  34/1/6 52/1/6 43/1/6
f  36/1/6 44/1/6 53/1/6
f  36/1/6 54/1/6 45/1/6
f  55/1/20 49/1/18 47/1/18
f  56/1/21 47/1/19 55/1/21
f  47/1/19 56/1/21 48/1/19
f  49/1/18 55/1/20 57/1/20
f  58/1/19 57/1/21 49/1/19
f  49/1/19 50/1/17 58/1/19
f  59/1/6 60/1/6 61/1/6
f  34/1/6 51/1/6 62/1/6
f  34/1/6 62/1/6 52/1/6
f  36/1/6 53/1/6 63/1/6
f  64/1/6 60/1/6 65/1/6
f  66/1/6 64/1/6 67/1/6
f  36/1/6 68/1/6 54/1/6
f  69/1/22 57/1/20 55/1/20
f  57/1/20 69/1/22 70/1/22
f  57/1/21 58/1/19 71/1/21
f  72/1/5 59/1/5 73/1/5
f  74/1/6 60/1/6 59/1/6
f  61/1/6 60/1/6 75/1/6
f  76/1/6 64/1/6 77/1/6
f  77/1/6 64/1/6 78/1/6
f  78/1/6 64/1/6 79/1/6
f  36/1/6 63/1/6 80/1/6
f  76/1/6 60/1/6 64/1/6
f  81/1/6 64/1/6 66/1/6
f  36/1/6 80/1/6 68/1/6
f  82/1/23 70/1/22 69/1/22
f  70/1/22 82/1/23 83/1/23
f  59/1/5 72/1/5 74/1/5
f  83/1/23 84/1/24 85/1/24
f  74/1/6 86/1/6 60/1/6
f  75/1/6 60/1/6 87/1/6
f  88/1/6 60/1/6 76/1/6
f  89/1/6 60/1/6 88/1/6
f  79/1/6 64/1/6 90/1/6
f  84/1/24 83/1/23 82/1/23
f  64/1/6 81/1/6 91/1/6
f  74/1/6 92/1/6 86/1/6
f  87/1/6 60/1/6 89/1/6
f  90/1/6 64/1/6 93/1/6
f  93/1/6 64/1/6 91/1/6
f  94/1/6 74/1/6 95/1/6
f  74/1/6 96/1/6 92/1/6
f  86/1/6 92/1/6 97/1/6
f  74/1/6 94/1/6 96/1/6

# Mesh 'mesh1_mesh1-geometry' with 60 faces
g mesh1_mesh1-geometry
usemtl material_1_24
f  3/1/25 2/1/25 1/1/26
f  4/1/26 1/1/26 2/1/25
f  2/1/25 3/1/25 5/1/27
f  6/1/26 4/1/26 2/1/25
f  7/1/27 5/1/27 3/1/25
f  8/1/26 4/1/26 6/1/26
f  5/1/27 7/1/27 9/1/28
f  12/1/29 11/1/29 10/1/29
f  13/1/28 9/1/28 7/1/27
f  14/1/29 10/1/29 11/1/29
f  9/1/10 13/1/10 16/1/9
f  16/1/7 9/1/8 17/1/7
f  13/1/8 19/1/7 18/1/8
f  19/1/9 16/1/9 13/1/10
f  21/1/8 17/1/7 9/1/8
f  17/1/7 22/1/12 16/1/7
f  16/1/9 19/1/9 23/1/11
f  23/1/12 16/1/7 22/1/12
f  24/1/7 18/1/8 19/1/7
f  25/1/11 23/1/11 19/1/9
f  19/1/7 25/1/12 24/1/7
f  22/1/12 26/1/13 23/1/12
f  23/1/11 25/1/11 27/1/6
f  27/1/13 23/1/12 26/1/13
f  28/1/12 24/1/7 25/1/12
f  29/1/6 27/1/6 25/1/11
f  25/1/12 29/1/13 28/1/12
f  27/1/6 29/1/6 30/1/15
f  30/1/14 27/1/13 31/1/14
f  26/1/13 31/1/14 27/1/13
f  32/1/13 28/1/12 29/1/13
f  33/1/15 30/1/15 29/1/6
f  29/1/13 33/1/14 32/1/13
f  30/1/15 33/1/15 37/1/17
f  37/1/16 30/1/14 38/1/16
f  31/1/14 38/1/16 30/1/14
f  39/1/17 37/1/17 33/1/15
f  33/1/14 39/1/16 40/1/14
f  40/1/14 32/1/13 33/1/14
f  37/1/17 39/1/17 47/1/19
f  47/1/18 37/1/16 48/1/18
f  38/1/16 48/1/18 37/1/16
f  49/1/19 47/1/19 39/1/17
f  39/1/16 49/1/18 50/1/16
f  50/1/16 40/1/14 39/1/16
f  47/1/19 49/1/19 55/1/21
f  55/1/20 47/1/18 56/1/20
f  48/1/18 56/1/20 47/1/18
f  57/1/21 55/1/21 49/1/19
f  49/1/18 57/1/20 58/1/18
f  58/1/18 50/1/16 49/1/18
f  55/1/21 57/1/21 69/1/30
f  70/1/30 69/1/30 57/1/21
f  71/1/20 58/1/18 57/1/20
f  73/1/29 59/1/29 72/1/29
f  69/1/30 70/1/30 82/1/31
f  83/1/31 82/1/31 70/1/30
f  74/1/29 72/1/29 59/1/29
f  85/1/32 84/1/32 83/1/31
f  82/1/31 83/1/31 84/1/32

# Mesh 'mesh1_mesh1-geometry' with 196 faces
g mesh1_mesh1-geometry
usemtl material_2_3_8
f  12/2/33 1/3/33 3/4/33
f  3/5/34 1/6/34 12/7/34
f  12/2/33 4/8/33 1/3/33
f  1/6/34 4/9/34 12/7/34
f  10/2/33 2/4/33 5/10/33
f  5/11/34 2/5/34 10/7/34
f  12/2/33 3/4/33 7/10/33
f  7/11/34 3/5/34 12/7/34
f  4/8/33 12/2/33 11/12/33
f  11/13/34 12/7/34 4/9/34
f  10/2/33 6/3/33 2/4/33
f  2/5/34 6/6/34 10/7/34
f  10/2/33 5/10/33 9/14/33
f  9/15/34 5/11/34 10/7/34
f  12/2/33 7/10/33 13/14/33
f  13/15/34 7/11/34 12/7/34
f  10/2/33 8/16/33 6/3/33
f  6/6/34 8/17/34 10/7/34
f  10/2/33 9/14/33 16/18/33
f  16/19/34 9/15/34 10/7/34
f  12/2/33 13/14/33 19/18/33
f  19/19/34 13/15/34 12/7/34
f  8/16/33 10/2/33 14/20/33
f  14/21/34 10/7/34 8/17/34
f  10/2/33 16/18/33 23/22/33
f  23/23/34 16/19/34 10/7/34
f  12/2/33 19/18/33 25/22/33
f  25/23/34 19/19/34 12/7/34
f  10/2/33 27/24/33 15/25/33
f  15/26/34 27/27/34 10/7/34
f  10/2/33 23/22/33 27/24/33
f  27/27/34 23/23/34 10/7/34
f  12/2/33 25/22/33 29/24/33
f  29/27/34 25/23/34 12/7/34
f  12/2/33 29/24/33 20/25/33
f  20/26/34 29/27/34 12/7/34
f  20/28/5 36/29/5 15/30/5
f  15/31/29 36/32/29 20/33/29
f  30/34/33 15/25/33 27/24/33
f  27/27/34 15/26/34 30/35/34
f  33/34/33 20/25/33 29/24/33
f  29/27/34 20/26/34 33/35/34
f  36/29/5 20/28/5 34/36/5
f  34/37/29 20/33/29 36/32/29
f  98/38/34 15/39/34 36/40/34
f  36/41/33 15/42/33 98/43/33
f  37/44/33 15/25/33 30/34/33
f  30/35/34 15/26/34 37/45/34
f  39/44/33 20/25/33 33/34/33
f  33/35/34 20/26/34 39/45/34
f  34/46/33 20/25/33 42/47/33
f  42/48/34 20/49/34 34/50/34
f  99/51/34 15/39/34 98/38/34
f  98/43/33 15/42/33 99/52/33
f  98/38/34 36/40/34 46/53/34
f  46/54/33 36/41/33 98/43/33
f  47/55/33 15/25/33 37/44/33
f  37/45/34 15/26/34 47/56/34
f  49/55/33 20/25/33 39/44/33
f  39/45/34 20/26/34 49/56/34
f  20/25/33 59/57/33 42/47/33
f  42/48/34 59/58/34 20/49/34
f  100/59/34 15/39/34 99/51/34
f  99/52/33 15/42/33 100/60/33
f  64/61/5 99/62/5 98/29/5
f  98/63/29 99/64/29 64/65/29
f  67/66/34 98/38/34 46/53/34
f  46/67/33 98/68/33 67/69/33
f  55/70/33 15/25/33 47/55/33
f  47/56/34 15/26/34 55/71/34
f  57/70/33 20/25/33 49/55/33
f  49/56/34 20/26/34 57/71/34
f  101/72/33 59/57/33 20/25/33
f  20/49/34 59/58/34 101/73/34
f  42/47/33 59/57/33 61/74/33
f  61/75/34 59/58/34 42/48/34
f  61/76/5 41/77/5 42/36/5
f  42/78/29 41/79/29 61/80/29
f  43/81/35 77/82/36 35/83/36
f  35/84/37 77/85/37 43/86/38
f  35/87/36 78/88/5 44/89/5
f  44/90/29 78/91/29 35/84/37
f  15/39/34 100/59/34 102/92/34
f  102/93/33 100/60/33 15/42/33
f  103/94/6 100/95/6 99/96/6
f  99/97/13 100/98/13 103/99/13
f  99/62/5 64/61/5 65/100/5
f  65/101/29 64/65/29 99/64/29
f  98/38/34 67/66/34 64/102/34
f  64/103/33 67/69/33 98/68/33
f  45/104/5 67/61/5 46/29/5
f  46/63/29 67/65/29 45/105/29
f  69/106/33 15/25/33 55/70/33
f  55/71/34 15/26/34 69/107/34
f  70/106/33 20/25/33 57/70/33
f  57/71/34 20/26/34 70/107/34
f  101/72/33 73/108/33 59/57/33
f  59/58/34 73/109/34 101/73/34
f  20/25/33 85/110/33 101/72/33
f  101/111/34 85/112/34 20/26/34
f  75/113/39 51/114/40 41/115/39
f  41/79/41 51/116/42 75/117/41
f  41/77/5 61/76/5 75/118/5
f  75/117/29 61/80/29 41/79/29
f  88/119/43 43/120/35 52/121/43
f  52/122/44 43/86/38 88/123/44
f  77/82/36 43/81/35 76/124/35
f  76/125/38 43/86/38 77/85/37
f  78/88/5 35/87/36 77/126/36
f  77/85/37 35/84/37 78/91/29
f  79/127/45 44/128/5 78/129/5
f  78/91/29 44/90/29 79/130/46
f  44/128/5 79/127/45 53/131/45
f  53/132/46 79/130/46 44/90/29
f  82/133/33 102/72/33 15/25/33
f  15/26/34 102/111/34 82/134/34
f  100/95/6 103/94/6 104/135/6
f  104/136/13 103/99/13 100/98/13
f  99/62/5 65/100/5 103/137/5
f  103/138/29 65/101/29 99/64/29
f  54/139/47 66/140/48 45/141/48
f  45/142/49 66/143/49 54/144/50
f  67/61/5 45/104/5 66/145/5
f  66/146/29 45/105/29 67/65/29
f  82/133/33 15/25/33 69/106/33
f  69/107/34 15/26/34 82/134/34
f  83/133/33 20/25/33 70/106/33
f  70/107/34 20/26/34 83/134/34
f  73/108/33 101/72/33 105/147/33
f  105/148/34 101/73/34 73/109/34
f  85/110/33 20/25/33 83/133/33
f  83/134/34 20/26/34 85/112/34
f  51/114/40 75/113/39 87/149/40
f  87/150/42 75/117/41 51/116/42
f  87/151/40 62/152/51 51/153/40
f  51/116/42 62/154/52 87/150/42
f  89/155/51 52/156/43 62/157/51
f  62/154/52 52/122/44 89/158/52
f  43/120/35 88/119/43 76/159/35
f  76/125/38 88/123/44 43/86/38
f  52/156/43 89/155/51 88/160/43
f  88/123/44 89/158/52 52/122/44
f  90/161/53 53/162/45 79/163/45
f  79/130/46 53/132/46 90/164/54
f  53/162/45 90/161/53 63/165/53
f  63/166/54 90/164/54 53/132/46
f  102/72/33 82/133/33 84/110/33
f  84/112/34 82/134/34 102/111/34
f  60/167/34 103/51/34 65/102/34
f  65/168/33 103/169/33 60/170/33
f  68/171/55 81/172/47 54/173/47
f  54/144/50 81/174/50 68/175/56
f  66/140/48 54/139/47 81/176/47
f  81/174/50 54/144/50 66/143/49
f  62/152/51 87/151/40 89/177/51
f  89/158/52 87/150/42 62/154/52
f  93/178/57 63/179/53 90/180/53
f  90/164/54 63/166/54 93/181/58
f  63/179/53 93/178/57 80/182/57
f  80/183/58 93/181/58 63/166/54
f  103/51/34 60/167/34 106/184/34
f  106/185/33 60/170/33 103/169/33
f  80/186/57 91/187/55 68/188/55
f  68/175/56 91/189/56 80/183/58
f  81/172/47 68/171/55 91/190/55
f  91/189/56 68/175/56 81/174/50
f  72/108/33 95/191/33 74/57/33
f  74/58/34 95/192/34 72/109/34
f  107/193/59 60/194/59 86/195/59
f  86/196/60 60/197/60 107/198/60
f  91/187/55 80/186/57 93/199/57
f  93/181/58 80/183/58 91/189/56
f  60/194/59 107/193/59 106/200/59
f  106/201/60 107/198/60 60/197/60
f  95/191/33 72/108/33 108/202/33
f  108/203/34 72/109/34 95/192/34
f  97/204/29 107/205/29 86/206/29
f  86/196/5 107/198/5 97/207/5
f  109/208/29 95/209/29 108/210/29
f  108/203/5 95/192/5 109/211/5
f  95/209/29 109/208/29 94/212/29
f  94/213/5 109/211/5 95/192/5
f  96/214/29 110/215/29 92/204/29
f  92/207/5 110/216/5 96/217/5
f  110/218/33 97/191/33 92/219/33
f  92/220/34 97/207/34 110/221/34
f  107/205/29 97/204/29 111/215/29
f  111/216/5 97/207/5 107/198/5
f  109/222/61 96/223/61 94/224/61
f  94/225/62 96/217/62 109/226/62
f  110/215/29 96/214/29 112/227/29
f  112/228/5 96/217/5 110/216/5
f  97/191/33 110/218/33 111/202/33
f  111/216/34 110/221/34 97/207/34
f  96/223/61 109/222/61 112/229/61
f  112/228/62 109/226/62 96/217/62

# Mesh 'mesh1_mesh1-geometry' with 2 faces
g mesh1_mesh1-geometry
usemtl material_3_4_8
f  10/230/13 15/231/13 12/232/13
f  20/233/13 12/232/13 15/231/13

# Mesh 'mesh1_mesh1-geometry' with 39 faces
g mesh1_mesh1-geometry
usemtl material_3_5_8
f  36/234/13 35/235/13 34/236/13
f  42/237/13 34/236/13 41/238/13
f  35/235/13 43/239/13 34/236/13
f  44/240/13 35/235/13 36/234/13
f  46/241/13 45/242/13 36/234/13
f  51/243/13 41/238/13 34/236/13
f  43/239/13 52/244/13 34/236/13
f  53/245/13 44/240/13 36/234/13
f  45/242/13 54/246/13 36/234/13
f  61/237/13 60/247/13 59/248/13
f  62/249/13 51/243/13 34/236/13
f  52/244/13 62/249/13 34/236/13
f  63/250/13 53/245/13 36/234/13
f  65/251/13 60/247/13 64/252/13
f  67/241/13 64/252/13 66/242/13
f  54/246/13 68/253/13 36/234/13
f  59/248/13 60/247/13 74/254/13
f  75/238/13 60/247/13 61/237/13
f  77/235/13 64/252/13 76/239/13
f  78/240/13 64/252/13 77/235/13
f  79/245/13 64/252/13 78/240/13
f  80/255/13 63/250/13 36/234/13
f  64/252/13 60/247/13 76/239/13
f  66/242/13 64/252/13 81/246/13
f  68/253/13 80/255/13 36/234/13
f  60/247/13 86/256/13 74/254/13
f  87/243/13 60/247/13 75/238/13
f  76/239/13 60/247/13 88/244/13
f  88/244/13 60/247/13 89/249/13
f  90/250/13 64/252/13 79/245/13
f  91/253/13 81/246/13 64/252/13
f  86/256/13 92/257/13 74/254/13
f  89/249/13 60/247/13 87/243/13
f  93/255/13 64/252/13 90/250/13
f  91/253/13 64/252/13 93/255/13
f  95/258/13 74/254/13 94/259/13
f  92/257/13 96/260/13 74/254/13
f  97/261/13 92/257/13 86/256/13
f  96/260/13 94/259/13 74/254/13

