# File produced by Open Asset Import Library (http://www.assimp.sf.net)
# (assimp v3.2.202087883)

mtllib model_normalized.mtl

# 49 vertex positions
v 0.284676 0.178012 -0.076279
v 0.284676 0.178012 0.076279
v 0.294719 0.178012 -0.000000
v 0.255234 0.178012 -0.147360
v 0.294719 -0.192987 -0.000000
v 0.000000 0.359395 -0.000000
v 0.284676 -0.192987 -0.076279
v 0.255234 -0.192987 -0.147360
v 0.255234 0.178012 0.147360
v 0.284676 -0.192987 0.076279
v 0.208398 -0.192987 -0.208398
v 0.208398 0.178012 -0.208398
v 0.208398 0.178012 0.208398
v 0.255234 -0.192987 0.147360
v 0.147360 0.178012 -0.255234
v 0.147360 0.178012 0.255234
v 0.208398 -0.192987 0.208398
v 0.076279 0.178012 -0.284676
v 0.076279 0.178012 0.284676
v 0.147360 -0.192987 0.255234
v 0.147360 -0.192987 -0.255234
v 0.000000 0.178012 -0.294719
v 0.000000 0.178012 0.294719
v 0.076279 -0.192987 0.284676
v 0.076279 -0.192987 -0.284676
v -0.076279 0.178012 -0.284676
v 0.000000 -0.192987 0.294719
v -0.076279 0.178012 0.284676
v 0.000000 -0.192987 -0.294719
v -0.147360 0.178012 -0.255234
v -0.076279 -0.192987 0.284676
v -0.147360 0.178012 0.255234
v -0.208398 0.178012 -0.208398
v -0.076279 -0.192987 -0.284676
v -0.147360 -0.192987 0.255234
v -0.208398 0.178012 0.208398
v -0.255234 0.178012 -0.147360
v -0.147360 -0.192987 -0.255234
v -0.208398 -0.192987 0.208398
v -0.255234 0.178012 0.147360
v -0.284676 0.178012 -0.076279
v -0.255234 -0.192987 -0.147360
v -0.208398 -0.192987 -0.208398
v -0.284676 0.178012 0.076279
v -0.294719 0.178012 -0.000000
v -0.284676 -0.192987 -0.076279
v -0.255234 -0.192987 0.147360
v -0.294719 -0.192987 -0.000000
v -0.284676 -0.192987 0.076279

# 0 UV coordinates

# 74 vertex normals
vn 0 1 0
vn 0 -1 -0
vn 0.965926 0 0.258819
vn 1 0 0
vn -1 0 0
vn -0.965926 0 -0.258819
vn 0.522889 0.849617 0.06884
vn -0.522889 -0.849617 -0.06884
vn 0.965926 0 -0.258819
vn -0.965926 0 0.258819
vn 0.522889 0.849617 -0.06884
vn -0.522889 -0.849617 0.06884
vn 0.866025 0 -0.5
vn -0.866025 0 0.5
vn 0.487255 0.849617 -0.201827
vn -0.487255 -0.849617 0.201827
vn 0.487255 0.849617 0.201827
vn -0.487255 -0.849617 -0.201827
vn 0.707107 0 -0.707107
vn -0.707107 0 0.707107
vn 0.418415 0.849617 -0.321061
vn -0.418415 -0.849617 0.321061
vn 0.866025 0 0.5
vn -0.866025 0 -0.5
vn 0.418415 0.849617 0.321061
vn -0.418415 -0.849617 -0.321061
vn 0.321061 0.849617 -0.418415
vn -0.321061 -0.849617 0.418415
vn 0.321061 0.849617 0.418415
vn -0.321061 -0.849617 -0.418415
vn 0.707107 0 0.707107
vn -0.707107 0 -0.707107
vn 0.5 0 -0.866025
vn -0.5 0 0.866025
vn 0.201827 0.849617 -0.487255
vn -0.201827 -0.849617 0.487255
vn 0.201827 0.849617 0.487255
vn -0.201827 -0.849617 -0.487255
vn 0.5 0 0.866025
vn -0.5 0 -0.866025
vn 0.258819 0 -0.965926
vn -0.258819 0 0.965926
vn 0.06884 0.849617 -0.522889
vn -0.06884 -0.849617 0.522889
vn 0.06884 0.849617 0.522889
vn -0.06884 -0.849617 -0.522889
vn 0.258819 0 0.965926
vn -0.258819 0 -0.965926
vn 0 0 -1
vn 0 0 1
vn -0.06884 0.849617 -0.522889
vn 0.06884 -0.849617 0.522889
vn -0.06884 0.849617 0.522889
vn 0.06884 -0.849617 -0.522889
vn -0.201827 0.849617 -0.487255
vn 0.201827 -0.849617 0.487255
vn -0.201827 0.849617 0.487255
vn 0.201827 -0.849617 -0.487255
vn -0.321061 0.849617 -0.418415
vn 0.321061 -0.849617 0.418415
vn -0.321061 0.849617 0.418415
vn 0.321061 -0.849617 -0.418415
vn -0.418415 0.849617 -0.321061
vn 0.418415 -0.849617 0.321061
vn -0.418415 0.849617 0.321061
vn 0.418415 -0.849617 -0.321061
vn -0.487255 0.849617 -0.201827
vn 0.487255 -0.849617 0.201827
vn -0.487255 0.849617 0.201827
vn 0.487255 -0.849617 -0.201827
vn -0.522889 0.849617 -0.06884
vn 0.522889 -0.849617 0.06884
vn -0.522889 0.849617 0.06884
vn 0.522889 -0.849617 -0.06884

# Mesh 'mesh1_mesh1-geometry' with 232 faces
g mesh1_mesh1-geometry
usemtl material_0_24
f  1//1 2//1 3//1
f  2//1 1//1 4//1
f  3//2 2//2 1//2
f  4//2 1//2 2//2
f  2//3 5//4 3//4
f  3//5 5//5 2//6
f  6//7 2//7 3//7
f  3//8 2//8 6//8
f  3//4 7//9 1//9
f  1//10 7//10 3//5
f  6//11 3//11 1//11
f  1//12 3//12 6//12
f  1//9 8//13 4//13
f  4//14 8//14 1//10
f  6//15 1//15 4//15
f  4//16 1//16 6//16
f  2//1 4//1 9//1
f  9//2 4//2 2//2
f  5//4 2//3 10//3
f  10//6 2//6 5//5
f  7//9 3//4 5//4
f  5//5 3//5 7//10
f  6//17 9//17 2//17
f  2//18 9//18 6//18
f  8//13 1//9 7//9
f  7//10 1//10 8//14
f  11//19 4//13 8//13
f  8//14 4//14 11//20
f  6//21 4//21 12//21
f  12//22 4//22 6//22
f  9//1 4//1 12//1
f  12//2 4//2 9//2
f  9//23 10//3 2//3
f  2//6 10//6 9//24
f  10//2 7//2 5//2
f  5//1 7//1 10//1
f  6//25 13//25 9//25
f  9//26 13//26 6//26
f  7//2 10//2 8//2
f  8//1 10//1 7//1
f  4//13 11//19 12//19
f  12//20 11//20 4//14
f  8//2 14//2 11//2
f  11//1 14//1 8//1
f  6//27 12//27 15//27
f  15//28 12//28 6//28
f  9//1 12//1 13//1
f  13//2 12//2 9//2
f  10//3 9//23 14//23
f  14//24 9//24 10//6
f  6//29 16//29 13//29
f  13//30 16//30 6//30
f  13//31 14//23 9//23
f  9//24 14//24 13//32
f  8//2 10//2 14//2
f  14//1 10//1 8//1
f  11//19 15//33 12//19
f  12//20 15//34 11//20
f  11//2 14//2 17//2
f  17//1 14//1 11//1
f  13//1 12//1 15//1
f  15//2 12//2 13//2
f  6//35 15//35 18//35
f  18//36 15//36 6//36
f  6//37 19//37 16//37
f  16//38 19//38 6//38
f  13//1 15//1 16//1
f  16//2 15//2 13//2
f  20//39 13//31 16//39
f  16//40 13//32 20//40
f  14//23 13//31 17//31
f  17//32 13//32 14//24
f  15//33 11//19 21//33
f  21//34 11//20 15//34
f  11//2 17//2 21//2
f  21//1 17//1 11//1
f  16//1 15//1 18//1
f  18//2 15//2 16//2
f  21//33 18//41 15//33
f  15//34 18//42 21//34
f  6//43 18//43 22//43
f  22//44 18//44 6//44
f  23//45 19//45 6//45
f  6//46 19//46 23//46
f  16//1 18//1 19//1
f  19//2 18//2 16//2
f  24//47 16//39 19//47
f  19//48 16//40 24//48
f  13//31 20//39 17//31
f  17//32 20//40 13//32
f  16//39 24//47 20//39
f  20//40 24//48 16//40
f  21//2 17//2 20//2
f  20//1 17//1 21//1
f  18//41 21//33 25//41
f  25//42 21//34 18//42
f  19//1 18//1 22//1
f  22//2 18//2 19//2
f  25//41 22//49 18//41
f  18//42 22//50 25//42
f  26//51 6//51 22//51
f  22//52 6//52 26//52
f  19//1 22//1 23//1
f  23//2 22//2 19//2
f  27//50 19//47 23//50
f  23//49 19//48 27//49
f  28//53 23//53 6//53
f  6//54 23//54 28//54
f  19//47 27//50 24//47
f  24//48 27//49 19//48
f  25//2 20//2 24//2
f  24//1 20//1 25//1
f  21//2 20//2 25//2
f  25//1 20//1 21//1
f  22//49 25//41 29//49
f  29//50 25//42 22//50
f  30//55 6//55 26//55
f  26//56 6//56 30//56
f  23//1 22//1 26//1
f  26//2 22//2 23//2
f  29//49 26//48 22//49
f  22//50 26//47 29//50
f  23//50 31//42 27//50
f  27//49 31//41 23//49
f  23//1 26//1 28//1
f  28//2 26//2 23//2
f  31//42 23//50 28//42
f  28//41 23//49 31//41
f  32//57 28//57 6//57
f  6//58 28//58 32//58
f  29//2 24//2 27//2
f  27//1 24//1 29//1
f  25//2 24//2 29//2
f  29//1 24//1 25//1
f  33//59 6//59 30//59
f  30//60 6//60 33//60
f  28//1 26//1 30//1
f  30//2 26//2 28//2
f  34//48 30//40 26//48
f  26//47 30//39 34//47
f  26//48 29//49 34//48
f  34//47 29//50 26//47
f  34//2 27//2 31//2
f  31//1 27//1 34//1
f  28//42 35//34 31//42
f  31//41 35//33 28//41
f  28//1 30//1 32//1
f  32//2 30//2 28//2
f  35//34 28//42 32//34
f  32//33 28//41 35//33
f  36//61 32//61 6//61
f  6//62 32//62 36//62
f  29//2 27//2 34//2
f  34//1 27//1 29//1
f  37//63 6//63 33//63
f  33//64 6//64 37//64
f  32//1 30//1 33//1
f  33//2 30//2 32//2
f  38//40 33//32 30//40
f  30//39 33//31 38//39
f  30//40 34//48 38//40
f  38//39 34//47 30//39
f  34//2 31//2 38//2
f  38//1 31//1 34//1
f  38//2 31//2 35//2
f  35//1 31//1 38//1
f  32//34 39//20 35//34
f  35//33 39//19 32//33
f  32//1 33//1 36//1
f  36//2 33//2 32//2
f  39//20 32//34 36//20
f  36//19 32//33 39//19
f  40//65 36//65 6//65
f  6//66 36//66 40//66
f  41//67 6//67 37//67
f  37//68 6//68 41//68
f  36//1 33//1 37//1
f  37//2 33//2 36//2
f  33//32 42//24 37//24
f  37//23 42//23 33//31
f  33//32 38//40 43//32
f  43//31 38//39 33//31
f  38//2 35//2 43//2
f  43//1 35//1 38//1
f  43//2 35//2 39//2
f  39//1 35//1 43//1
f  40//14 39//20 36//20
f  36//19 39//19 40//13
f  36//1 37//1 40//1
f  40//2 37//2 36//2
f  44//69 40//69 6//69
f  6//70 40//70 44//70
f  45//71 6//71 41//71
f  41//72 6//72 45//72
f  40//1 37//1 41//1
f  41//2 37//2 40//2
f  37//24 46//6 41//6
f  41//3 46//3 37//23
f  42//24 33//32 43//32
f  43//31 33//31 42//23
f  46//6 37//24 42//24
f  42//23 37//23 46//3
f  43//2 39//2 42//2
f  42//1 39//1 43//1
f  39//20 40//14 47//14
f  47//13 40//13 39//19
f  40//1 41//1 44//1
f  44//2 41//2 40//2
f  44//10 47//14 40//14
f  40//13 47//13 44//9
f  45//73 44//73 6//73
f  6//74 44//74 45//74
f  44//1 41//1 45//1
f  45//2 41//2 44//2
f  41//6 48//5 45//5
f  45//4 48//4 41//3
f  48//5 41//6 46//6
f  46//3 41//3 48//4
f  42//2 47//2 46//2
f  46//1 47//1 42//1
f  42//2 39//2 47//2
f  47//1 39//1 42//1
f  47//14 44//10 49//10
f  49//9 44//9 47//13
f  45//5 49//10 44//10
f  44//9 49//9 45//4
f  49//10 45//5 48//5
f  48//4 45//4 49//9
f  46//2 49//2 48//2
f  48//1 49//1 46//1
f  46//2 47//2 49//2
f  49//1 47//1 46//1

# Mesh 'mesh2_mesh2-geometry' with 48 faces
g mesh2_mesh2-geometry
usemtl material_0_0
l  44 40
l  45 44
l  44 6
l  40 36
l  40 6
l  41 45
l  45 6
l  6 16
l  13 6
l  9 6
l  2 6
l  3 6
l  1 6
l  4 6
l  12 6
l  15 6
l  18 6
l  22 6
l  26 6
l  30 6
l  33 6
l  37 6
l  41 6
l  36 6
l  32 6
l  28 6
l  23 6
l  19 6
l  36 32
l  37 41
l  16 13
l  19 16
l  13 9
l  9 2
l  2 3
l  3 1
l  1 4
l  4 12
l  12 15
l  15 18
l  18 22
l  22 26
l  26 30
l  30 33
l  33 37
l  32 28
l  28 23
l  23 19

# Mesh 'mesh3_mesh3-geometry' with 24 faces
g mesh3_mesh3-geometry
usemtl material_0_0
l  49 47
l  48 49
l  47 39
l  46 48
l  39 35
l  42 46
l  35 31
l  43 42
l  31 27
l  38 43
l  27 24
l  34 38
l  24 20
l  29 34
l  20 17
l  25 29
l  17 14
l  21 25
l  14 10
l  11 21
l  10 5
l  8 11
l  5 7
l  7 8

