# File produced by Open Asset Import Library (http://www.assimp.sf.net)
# (assimp v3.2.202087883)

mtllib model_normalized.mtl

# 36 vertex positions
v 0.026054 0.462947 0.020060
v -0.026060 0.462947 -0.020053
v -0.026060 0.462947 0.020060
v 0.026054 0.462947 -0.020053
v -0.026060 0.276983 0.020060
v 0.026054 0.276983 -0.020053
v -0.026060 0.276983 -0.020053
v 0.026054 0.276983 0.020060
v -0.198549 0.276983 0.020060
v 0.198568 0.276983 0.020060
v 0.198568 0.276983 -0.020053
v -0.198549 0.276983 -0.020053
v -0.198549 0.224837 -0.020053
v -0.198549 0.224837 0.020060
v 0.198568 0.224837 -0.020053
v -0.026060 0.224837 -0.020053
v -0.026060 0.224837 0.020060
v 0.198568 0.224837 0.020060
v 0.026054 0.224837 -0.020053
v 0.026054 0.224837 0.020060
v 0.026054 -0.308484 -0.020053
v -0.026060 -0.308484 0.020060
v -0.026060 -0.308484 -0.020053
v 0.026054 -0.308484 0.020060
v 0.030729 -0.308484 -0.030728
v -0.098831 -0.424810 -0.076020
v -0.030735 -0.308484 -0.030728
v 0.030729 -0.308484 0.030672
v 0.098825 -0.424810 0.076027
v 0.098825 -0.424810 -0.076020
v -0.030735 -0.308484 0.030672
v -0.098831 -0.424810 0.076027
v 0.116386 -0.424810 -0.116385
v -0.116386 -0.424810 -0.116385
v -0.116386 -0.424810 0.116392
v 0.116386 -0.424810 0.116392

# 58 UV coordinates
vt 0.590287 0.74922 0
vt 0.516038 0.777455 0
vt 0.507916 0.753253 0
vt 0.598409 0.773422 0
vt 0.524816 0.732445 0
vt 0.620481 0.562546 0
vt 0.620749 0.732423 0
vt 0.507648 0.583376 0
vt 0.50274 0.752139 0
vt 0.598405 0.58224 0
vt 0.598673 0.752116 0
vt -19.4763 1.5918 0
vt -19.3937 1.75764 0
vt -19.476 1.76167 0
vt 0.524549 0.562568 0
vt 0.59002 0.579343 0
vt 0.502473 0.582262 0
vt -19.3939 1.58776 0
vt 0.499526 0.559174 0
vt 0.235188 0.596716 0
vt 0.86248 0.566003 0
vt 0.598142 0.603545 0
vt -19.7488 1.60514 0
vt 0.227066 0.572514 0
vt 0.870602 0.590205 0
vt -19.1215 1.57442 0
vt 0.331121 0.596694 0
vt 0.331046 0.549059 0
vt 0.235113 0.549081 0
vt 0.544988 0.572861 0
vt 0.640846 0.525204 0
vt 0.640921 0.572839 0
vt -19.7488 1.5575 0
vt -19.394 1.54013 0
vt -19.1215 1.52679 0
vt 0.507573 0.535741 0
vt 0.544913 0.525226 0
vt -19.4764 1.54416 0
vt 0.243235 0.573283 0
vt 0.515695 0.559943 0
vt 0.589945 0.531708 0
vt 0.862405 0.518368 0
vt 0.586346 0.565051 0
vt 0.850684 0.52751 0
vt 0.858806 0.551711 0
vt 0.578224 0.540849 0
vt -19.4771 1.05698 0
vt 0.518338 0.497155 0
vt 0.613504 0.009947 0
vt 0.614271 0.497133 0
vt 0.506806 0.048555 0
vt 0.498646 0.536118 0
vt 0.593811 0.04891 0
vt 0.594578 0.536096 0
vt -19.3948 1.05294 0
vt 0.517572 0.009969 0
vt 0.589178 0.044522 0
vt 0.497879 0.048932 0

# 22 vertex normals
vn 0 0.0254 0
vn -0.0254 0 0
vn 0 0 0.0254
vn 0.0254 0 0
vn 0 0 -0.0254
vn -0 -0.0254 0
vn 0 -0.0110106 0.0228894
vn 0 0.0110106 -0.0228894
vn 0.0215358 -0.0134673 0
vn -0.0215358 0.0134673 0
vn 0 -0.0110106 -0.0228894
vn 0 0.0110106 0.0228894
vn -0.0215358 -0.0134673 -0
vn 0.0215358 0.0134673 0
vn 0 0.0150635 -0.0204512
vn 0 -0.0150635 0.0204512
vn 0.0204512 0.0150635 0
vn -0.0204512 -0.0150635 -0
vn -0.0204512 0.0150635 0
vn 0.0204512 -0.0150635 0
vn 0 0.0150635 0.0204512
vn 0 -0.0150635 -0.0204512

# Mesh 'mesh1_mesh1-geometry' with 42 faces
g mesh1_mesh1-geometry
usemtl material_0_1_8
f  1/1/1 2/2/1 3/3/1
f  2/2/1 1/1/1 4/4/1
f  2/5/2 5/6/2 3/7/2
f  5/8/3 1/1/3 3/3/3
f  1/9/4 6/10/4 4/11/4
f  6/12/5 2/13/5 4/14/5
f  5/6/2 2/5/2 7/15/2
f  1/1/3 5/8/3 8/16/3
f  6/10/4 1/9/4 8/17/4
f  2/13/5 6/12/5 7/18/5
f  5/8/1 7/19/1 9/20/1
f  9/20/3 8/16/3 5/8/3
f  10/21/1 6/22/1 8/16/1
f  11/23/5 7/18/5 6/12/5
f  12/24/1 9/20/1 7/19/1
f  9/20/3 10/21/3 8/16/3
f  6/22/1 10/21/1 11/25/1
f  11/23/5 12/26/5 7/18/5
f  12/27/2 13/28/2 9/20/2
f  14/29/3 10/21/3 9/20/3
f  10/30/4 15/31/4 11/32/4
f  15/33/5 12/26/5 11/23/5
f  14/29/2 9/20/2 13/28/2
f  12/26/5 16/34/5 13/35/5
f  17/36/3 10/21/3 14/29/3
f  15/31/4 10/30/4 18/37/4
f  19/38/5 12/26/5 15/33/5
f  14/29/6 13/39/6 17/36/6
f  16/34/5 12/26/5 19/38/5
f  16/40/6 17/36/6 13/39/6
f  20/41/3 10/21/3 17/36/3
f  10/21/3 20/41/3 18/42/3
f  20/43/6 15/44/6 18/45/6
f  15/44/6 20/43/6 19/46/6
f  21/47/5 16/34/5 19/38/5
f  16/48/2 22/49/2 17/50/2
f  22/51/3 20/41/3 17/36/3
f  20/52/4 21/53/4 19/54/4
f  16/34/5 21/47/5 23/55/5
f  22/49/2 16/48/2 23/56/2
f  20/41/3 22/51/3 24/57/3
f  21/53/4 20/52/4 24/58/4

# Mesh 'mesh1_mesh1-geometry' with 110 faces
g mesh1_mesh1-geometry
usemtl material_1_24
f  3//6 2//6 1//6
f  4//6 1//6 2//6
f  3//4 5//4 2//4
f  3//5 1//5 5//5
f  4//2 6//2 1//2
f  4//3 2//3 6//3
f  7//4 2//4 5//4
f  8//5 5//5 1//5
f  8//2 1//2 6//2
f  7//3 6//3 2//3
f  9//6 7//6 5//6
f  5//5 8//5 9//5
f  8//6 6//6 10//6
f  6//3 7//3 11//3
f  7//6 9//6 12//6
f  8//5 10//5 9//5
f  11//6 10//6 6//6
f  7//3 12//3 11//3
f  9//4 13//4 12//4
f  9//5 10//5 14//5
f  11//2 15//2 10//2
f  11//3 12//3 15//3
f  13//4 9//4 14//4
f  13//3 16//3 12//3
f  14//5 10//5 17//5
f  18//2 10//2 15//2
f  15//3 12//3 19//3
f  17//1 13//1 14//1
f  19//3 12//3 16//3
f  13//1 17//1 16//1
f  17//5 10//5 20//5
f  18//5 20//5 10//5
f  18//1 15//1 20//1
f  19//1 20//1 15//1
f  19//3 16//3 21//3
f  17//4 22//4 16//4
f  17//5 20//5 22//5
f  19//2 21//2 20//2
f  23//3 21//3 16//3
f  23//4 16//4 22//4
f  24//5 22//5 20//5
f  24//2 20//2 21//2
f  25//1 23//1 21//1
f  21//6 23//6 25//6
f  21//6 22//6 23//6
f  23//1 22//1 21//1
f  26//7 21//7 23//7
f  23//8 21//8 26//8
f  23//1 27//1 22//1
f  22//6 27//6 23//6
f  22//9 26//9 23//9
f  23//10 26//10 22//10
f  22//1 28//1 24//1
f  24//6 28//6 22//6
f  22//6 21//6 24//6
f  24//1 21//1 22//1
f  29//11 22//11 24//11
f  24//12 22//12 29//12
f  24//1 28//1 21//1
f  21//6 28//6 24//6
f  30//13 24//13 21//13
f  21//14 24//14 30//14
f  27//1 23//1 25//1
f  25//6 23//6 27//6
f  25//1 21//1 28//1
f  28//6 21//6 25//6
f  21//7 26//7 30//7
f  30//8 26//8 21//8
f  31//1 22//1 27//1
f  27//6 22//6 31//6
f  26//9 22//9 32//9
f  32//10 22//10 26//10
f  22//1 31//1 28//1
f  28//6 31//6 22//6
f  22//11 29//11 32//11
f  32//12 29//12 22//12
f  24//13 30//13 29//13
f  29//14 30//14 24//14
f  33//15 27//15 25//15
f  25//16 27//16 33//16
f  28//17 33//17 25//17
f  25//18 33//18 28//18
f  26//6 33//6 30//6
f  30//1 33//1 26//1
f  34//19 31//19 27//19
f  27//20 31//20 34//20
f  32//6 35//6 26//6
f  26//1 35//1 32//1
f  35//21 28//21 31//21
f  31//22 28//22 35//22
f  36//6 32//6 29//6
f  29//1 32//1 36//1
f  30//6 33//6 29//6
f  29//1 33//1 30//1
f  27//15 33//15 34//15
f  34//16 33//16 27//16
f  33//17 28//17 36//17
f  36//18 28//18 33//18
f  26//6 34//6 33//6
f  33//1 34//1 26//1
f  31//19 34//19 35//19
f  35//20 34//20 31//20
f  35//6 32//6 36//6
f  36//1 32//1 35//1
f  34//6 26//6 35//6
f  35//1 26//1 34//1
f  28//21 35//21 36//21
f  36//22 35//22 28//22
f  36//6 29//6 33//6
f  33//1 29//1 36//1

# Mesh 'mesh2_mesh2-geometry' with 12 faces
g mesh2_mesh2-geometry
usemtl material_1_0
l  31 27
l  28 31
l  31 35
l  27 25
l  27 34
l  25 28
l  28 36
l  36 35
l  35 34
l  25 33
l  34 33
l  33 36

# Mesh 'mesh3_mesh3-geometry' with 8 faces
g mesh3_mesh3-geometry
usemtl material_1_0
l  29 32
l  30 29
l  24 29
l  32 26
l  22 32
l  26 30
l  21 30
l  23 26

